<svg width="20" height="20" viewBox="0 0 20 20" fill="none" xmlns="http://www.w3.org/2000/svg">
<g clip-path="url(#clip0_17311_8286)">
<path d="M15.6508 8.93266H4.08779C3.93353 8.93135 3.78079 8.96314 3.63986 9.02589C3.49894 9.08865 3.37311 9.1809 3.27088 9.29642C3.16864 9.41195 3.09238 9.54806 3.04723 9.69557C3.00208 9.84308 2.9891 9.99856 3.00916 10.1515L3.79656 16.084C3.83079 16.3451 3.95937 16.5847 4.15807 16.7576C4.35677 16.9305 4.61184 17.0247 4.8752 17.0224H14.8418C15.1051 17.0247 15.3602 16.9305 15.5589 16.7576C15.7576 16.5847 15.8862 16.3451 15.9204 16.084L16.7078 10.1515C16.7277 10.0004 16.7152 9.84672 16.6713 9.70072C16.6274 9.55472 16.5531 9.41969 16.4532 9.30451C16.3533 9.18934 16.2302 9.09665 16.0919 9.03256C15.9535 8.96846 15.8032 8.93441 15.6508 8.93266Z" stroke="#4D5562" stroke-width="1.5" stroke-linecap="round" stroke-linejoin="round"/>
<path d="M7.17261 11.6289V14.3255" stroke="#4D5562" stroke-width="1.5" stroke-linecap="round" stroke-linejoin="round"/>
<path d="M9.86914 11.6289V14.3255" stroke="#4D5562" stroke-width="1.5" stroke-linecap="round" stroke-linejoin="round"/>
<path d="M12.5657 11.6289V14.3255" stroke="#4D5562" stroke-width="1.5" stroke-linecap="round" stroke-linejoin="round"/>
<path d="M12.5442 4.12207C13.1903 4.2337 13.7823 4.5533 14.2301 5.03226C14.6779 5.51123 14.9571 6.12335 15.0251 6.77551L15.2624 8.93278" stroke="#4D5562" stroke-width="1.5" stroke-linecap="round" stroke-linejoin="round"/>
<path d="M4.47607 8.93269L4.71337 6.77542C4.78577 6.12712 5.06687 5.5199 5.51432 5.04522C5.96176 4.57053 6.55134 4.25409 7.19423 4.14355" stroke="#4D5562" stroke-width="1.5" stroke-linecap="round" stroke-linejoin="round"/>
<path d="M12.5658 4.34829C12.5658 4.52535 12.5309 4.70068 12.4631 4.86426C12.3954 5.02785 12.2961 5.17648 12.1709 5.30168C12.0457 5.42688 11.897 5.5262 11.7335 5.59395C11.5699 5.66171 11.3945 5.69659 11.2175 5.69659H8.5209C8.16331 5.69659 7.82037 5.55454 7.56751 5.30168C7.31466 5.04883 7.17261 4.70588 7.17261 4.34829C7.17261 3.9907 7.31466 3.64776 7.56751 3.39491C7.82037 3.14205 8.16331 3 8.5209 3H11.2175C11.5751 3 11.918 3.14205 12.1709 3.39491C12.4237 3.64776 12.5658 3.9907 12.5658 4.34829V4.34829Z" stroke="#4D5562" stroke-width="1.5" stroke-linecap="round" stroke-linejoin="round"/>
</g>
<defs>
<clipPath id="clip0_17311_8286">
<rect width="16" height="16" fill="white" transform="translate(2 2)"/>
</clipPath>
</defs>
</svg>
