<svg width="18" height="19" viewBox="0 0 18 19" fill="none" xmlns="http://www.w3.org/2000/svg">
<path d="M16.138 7.98193C16.3033 7.98201 16.5521 8.02443 16.755 8.229C16.9581 8.43377 17 8.6853 17 8.85204C17 8.86422 16.9998 8.87659 16.9991 8.88875L16.6982 14.5373C16.6786 16.4878 15.1076 17.9818 13.2468 17.9819H4.87395C2.94859 17.9819 1.38193 16.4839 1.30271 14.5364L1.30182 14.5373L1.00089 8.88875L1 8.85204C1 8.68531 1.04196 8.43376 1.24501 8.229C1.44807 8.02426 1.69755 7.98193 1.86285 7.98193H16.138ZM2.66356 14.4639L2.66445 14.4737C2.71045 15.68 3.67051 16.6069 4.87395 16.6069H13.2468C14.3856 16.6068 15.3355 15.6902 15.3356 14.5006C15.3356 14.4884 15.3358 14.4761 15.3364 14.4639L15.6081 9.35692H2.39192L2.66356 14.4639Z" fill="#434CE8"/>
<path d="M11.4989 12.4824C11.4989 12.3094 11.3701 12.0419 10.9057 11.7824C10.4539 11.53 9.7818 11.3517 9 11.3516C8.21822 11.3516 7.54617 11.53 7.09431 11.7824C6.62977 12.0419 6.5011 12.3094 6.5011 12.4824C6.50129 12.6554 6.63011 12.9222 7.09431 13.1815C7.54617 13.4339 8.21819 13.6122 9 13.6122C9.7818 13.6122 10.4539 13.4339 10.9057 13.1815C11.3697 12.9222 11.4987 12.6554 11.4989 12.4824ZM13 12.4824C12.9998 13.3116 12.4007 13.9523 11.6895 14.3497C10.9654 14.7542 10.0125 14.9819 9 14.9819C7.98751 14.9819 7.03463 14.7542 6.31053 14.3497C5.5992 13.9523 5.00019 13.3117 5 12.4824C5 11.6529 5.59909 11.0116 6.31053 10.6142C7.03462 10.2097 7.98753 9.98193 9 9.98193C10.0125 9.98197 10.9654 10.2097 11.6895 10.6142C12.4009 11.0116 13 11.6529 13 12.4824Z" fill="#434CE8"/>
<path d="M15.2946 4.98193C15.6842 4.98193 16 5.26889 16 5.62287V8.341C16 8.69494 15.6841 8.98193 15.2946 8.98193H2.70542C2.31586 8.98193 2.00005 8.69494 2 8.341V5.62287C2 5.26889 2.31583 4.98193 2.70542 4.98193H15.2946ZM3.41084 7.70006H14.5892V6.2638H3.41084V7.70006Z" fill="#434CE8"/>
<path d="M8.15368 1.40627C8.15997 1.41968 8.17239 1.4446 8.19101 1.47907C8.22824 1.54797 8.29157 1.65583 8.38806 1.79069C8.581 2.06028 8.90719 2.44003 9.42282 2.83385C10.4479 3.61674 12.2639 4.48846 15.3614 4.61921C15.7291 4.6349 16.0146 4.95242 15.9994 5.32856C15.9841 5.70466 15.6736 5.99662 15.3058 5.9811C11.9749 5.84044 9.89174 4.89411 8.62505 3.92673C7.99481 3.44537 7.57631 2.96664 7.31164 2.59681C7.28419 2.55846 7.26031 2.5199 7.23611 2.48406C6.17774 2.90835 5.72655 3.55813 5.51991 4.08298C5.39617 4.39743 5.35182 4.69095 5.33848 4.90508C5.33186 5.01145 5.33253 5.09604 5.33501 5.15012C5.33624 5.17679 5.33841 5.19574 5.33935 5.20605C5.33982 5.2112 5.34016 5.21437 5.34022 5.21493L5.33935 5.21404L5.34456 5.27885C5.35553 5.62422 5.10936 5.92868 4.76728 5.97577C4.40238 6.02599 4.06637 5.7639 4.01726 5.39071L4.67874 5.30015C4.01801 5.3911 4.01732 5.39025 4.01726 5.38982V5.38716C4.01709 5.38581 4.01659 5.38436 4.01639 5.38272C4.01597 5.37929 4.01605 5.37498 4.01552 5.37029C4.01444 5.36058 4.01254 5.34783 4.01118 5.333C4.00847 5.30319 4.00562 5.26295 4.00337 5.21404C3.99888 5.1161 3.99759 4.98054 4.00771 4.81808C4.02788 4.49471 4.09435 4.05235 4.28289 3.57339C4.67243 2.58397 5.54901 1.52631 7.35591 1.00765L7.47744 0.984565C7.762 0.958846 8.03677 1.12341 8.15021 1.40183C8.15086 1.40326 8.15279 1.40437 8.15368 1.40627ZM8.14847 1.3965V1.39473C8.14864 1.39511 8.14863 1.3967 8.14934 1.39828L8.14847 1.3965Z" fill="#434CE8"/>
</svg>
