<svg width="18" height="19" viewBox="0 0 18 19" fill="none" xmlns="http://www.w3.org/2000/svg">
<path fill-rule="evenodd" clip-rule="evenodd" d="M7.47754 0.984682C7.76204 0.959006 8.03695 1.12333 8.15039 1.40167C8.15105 1.4031 8.15243 1.40466 8.15332 1.40656C8.15963 1.41999 8.17284 1.44445 8.19141 1.47882C8.2286 1.54766 8.29136 1.65568 8.3877 1.79035C8.58063 2.05994 8.90722 2.44047 9.42285 2.83429C10.448 3.61714 12.2641 4.4887 15.3613 4.61945C15.729 4.63513 16.0141 4.95234 15.999 5.32843C15.997 5.37796 15.9893 5.42589 15.9775 5.47199C15.9905 5.52058 16 5.57113 16 5.62335V7.98175H16.1377C16.303 7.98182 16.552 8.02438 16.7549 8.22882C16.9579 8.43352 17 8.68512 17 8.85187C17 8.86404 16.9997 8.87682 16.999 8.88898L16.6982 14.5374C16.6786 16.4878 15.1077 17.9814 13.2471 17.9818H4.87402C2.94868 17.9817 1.38197 16.4839 1.30273 14.5364L1.30176 14.5374L1.00098 8.88898L1 8.85187C1.00003 8.68513 1.04214 8.43351 1.24512 8.22882C1.44816 8.0242 1.69802 7.98175 1.86328 7.98175H2V5.62335C2 5.26948 2.31564 4.98192 2.70508 4.98175H4.00195C4.00303 4.93098 4.00419 4.87585 4.00781 4.81769C4.02801 4.49436 4.09475 4.0523 4.2832 3.57355C4.67271 2.58424 5.54893 1.52683 7.35547 1.00812L7.47754 0.984682ZM2.66309 14.4642L2.66406 14.4739C2.71016 15.6801 3.67065 16.6067 4.87402 16.6068H13.2471C14.3857 16.6064 15.3358 15.6898 15.3359 14.5003C15.3359 14.4883 15.3363 14.4762 15.3369 14.4642L15.6084 9.35675H2.3916L2.66309 14.4642ZM9 9.98175C10.0125 9.98179 10.9654 10.2101 11.6895 10.6146C12.4008 11.012 13 11.6533 13 12.4827C12.9996 13.3118 12.4006 13.9526 11.6895 14.3499C10.9654 14.7544 10.0124 14.9817 9 14.9818C7.98756 14.9818 7.03463 14.7543 6.31055 14.3499C5.59932 13.9526 5.00036 13.3119 5 12.4827C5 11.6533 5.59917 11.012 6.31055 10.6146C7.03464 10.2101 7.98753 9.98175 9 9.98175ZM9 11.3519C8.21836 11.3519 7.54658 11.5302 7.09473 11.7825C6.63019 12.0421 6.50098 12.3097 6.50098 12.4827C6.50134 12.6558 6.63085 12.9228 7.09473 13.1819C7.54658 13.4342 8.21848 13.6126 9 13.6126C9.78151 13.6126 10.4535 13.4342 10.9053 13.1819C11.369 12.9228 11.4987 12.6557 11.499 12.4827C11.499 12.3097 11.3697 12.042 10.9053 11.7825C10.4535 11.5302 9.78166 11.3519 9 11.3519ZM3.41113 7.7005H14.5889V6.26398H3.41113V7.7005ZM7.23633 2.48371C6.17795 2.90799 5.72617 3.55846 5.51953 4.08331C5.39601 4.39736 5.35224 4.6906 5.33887 4.9046C5.33719 4.93157 5.33872 4.95773 5.33789 4.98175H10.458C9.71203 4.66216 9.10878 4.29651 8.625 3.92706C7.9948 3.44574 7.5762 2.96681 7.31152 2.59699C7.28408 2.55864 7.26052 2.51955 7.23633 2.48371Z" fill="#394150"/>
</svg>
