<svg width="36" height="36" viewBox="0 0 36 36" fill="none" xmlns="http://www.w3.org/2000/svg">
<path d="M17.999 9.75C18.5056 9.75 18.9978 9.81978 19.4648 9.95117C19.1211 10.3492 18.8458 10.8073 18.6514 11.3057C18.439 11.2699 18.2209 11.25 17.999 11.25C16.0094 11.2502 14.3371 12.7462 14.1172 14.7236L13.9082 16.6123C13.7886 17.6883 13.4378 18.726 12.8809 19.6543L12.3994 20.457C12.2433 20.7172 12.1436 20.8846 12.0771 21.0117C12.0385 21.0858 12.0228 21.1245 12.0176 21.1387C12.0055 21.2457 12.0635 21.3474 12.1611 21.3926C12.1752 21.3953 12.2169 21.4032 12.3018 21.4082C12.4449 21.4167 12.6395 21.417 12.9424 21.417H23.0557C23.3585 21.417 23.5531 21.4166 23.6963 21.4082C23.7788 21.4033 23.8206 21.3955 23.8359 21.3926C23.9344 21.3477 23.9917 21.2462 23.9795 21.1387C23.9741 21.1241 23.9592 21.0851 23.9209 21.0117C23.8545 20.8845 23.7547 20.7172 23.5986 20.457L23.1172 19.6543C22.7347 19.0168 22.4523 18.327 22.2725 17.6094C22.5095 17.6465 22.7525 17.666 23 17.666C23.2818 17.666 23.5572 17.6387 23.8252 17.5908C23.967 18.0412 24.159 18.4756 24.4033 18.8828L24.8848 19.6855C25.0312 19.9297 25.1591 20.1415 25.251 20.3174C25.3182 20.4462 25.3884 20.595 25.4326 20.7598L25.4668 20.9297L25.4805 21.0762C25.5184 21.8029 25.1002 22.4847 24.4219 22.7754C24.2054 22.868 23.9786 22.8938 23.7852 22.9053C23.5872 22.917 23.3401 22.917 23.0557 22.917H12.9424C12.6579 22.917 12.4108 22.917 12.2129 22.9053C12.0195 22.8938 11.7926 22.8681 11.5762 22.7754C10.8528 22.4652 10.4249 21.7095 10.5312 20.9297C10.5631 20.6965 10.6574 20.4891 10.7471 20.3174C10.8389 20.1415 10.9668 19.9297 11.1133 19.6855L11.5947 18.8828C12.0407 18.1396 12.3212 17.3087 12.417 16.4473L12.627 14.5586C12.9311 11.8213 15.245 9.75024 17.999 9.75ZM22.0791 11.6104C22.7782 12.4142 23.2456 13.4295 23.3711 14.5586L23.3779 14.6211C23.2564 14.6493 23.1301 14.666 23 14.666L22.8291 14.6582C22.4085 14.6155 22.0337 14.4167 21.7646 14.1201C21.6679 13.7672 21.5233 13.4358 21.3389 13.1318C21.3355 13.0884 21.333 13.0443 21.333 13C21.3331 12.42 21.6294 11.9089 22.0791 11.6104Z" fill="#9DA3AE"/>
<path d="M15.5852 22.7206C15.7276 23.5179 16.0415 24.2225 16.4781 24.7251C16.9147 25.2276 17.4497 25.5 18 25.5C18.5503 25.5 19.0853 25.2276 19.5219 24.7251C19.9585 24.2225 20.2724 23.5179 20.4148 22.7206" stroke="#9DA3AE" stroke-width="1.5" stroke-linecap="round"/>
<path d="M23.001 11.0833C24.0594 11.0834 24.917 11.9418 24.917 13.0002C24.9168 14.0585 24.0593 14.9161 23.001 14.9163C21.9425 14.9163 21.0842 14.0586 21.084 13.0002C21.084 11.9417 21.9424 11.0833 23.001 11.0833Z" fill="#DB2961" stroke="#DB2961" stroke-width="0.5"/>
</svg>
