<svg width="20" height="20" viewBox="0 0 20 20" fill="none" xmlns="http://www.w3.org/2000/svg">
<path d="M9.99902 1.75C10.5056 1.75 10.9978 1.81978 11.4648 1.95117C11.1211 2.34924 10.8458 2.80729 10.6514 3.30566C10.439 3.26988 10.2209 3.25 9.99902 3.25C8.00942 3.25024 6.33706 4.7462 6.11719 6.72363L5.9082 8.6123C5.78864 9.68828 5.43785 10.726 4.88086 11.6543L4.39941 12.457C4.24331 12.7172 4.14356 12.8846 4.07715 13.0117C4.03847 13.0858 4.02276 13.1245 4.01758 13.1387C4.00548 13.2457 4.0635 13.3474 4.16113 13.3926C4.17521 13.3953 4.2169 13.4032 4.30176 13.4082C4.44487 13.4167 4.63948 13.417 4.94238 13.417H15.0557C15.3585 13.417 15.5531 13.4166 15.6963 13.4082C15.7788 13.4033 15.8206 13.3955 15.8359 13.3926C15.9344 13.3477 15.9917 13.2462 15.9795 13.1387C15.9741 13.1241 15.9592 13.0851 15.9209 13.0117C15.8545 12.8845 15.7547 12.7172 15.5986 12.457L15.1172 11.6543C14.7347 11.0168 14.4523 10.327 14.2725 9.60938C14.5095 9.64647 14.7525 9.66602 15 9.66602C15.2818 9.66599 15.5572 9.63869 15.8252 9.59082C15.967 10.0412 16.159 10.4756 16.4033 10.8828L16.8848 11.6855C17.0312 11.9297 17.1591 12.1415 17.251 12.3174C17.3182 12.4462 17.3884 12.595 17.4326 12.7598L17.4668 12.9297L17.4805 13.0762C17.5184 13.8029 17.1002 14.4847 16.4219 14.7754C16.2054 14.868 15.9786 14.8938 15.7852 14.9053C15.5872 14.917 15.3401 14.917 15.0557 14.917H4.94238C4.65793 14.917 4.41081 14.917 4.21289 14.9053C4.01947 14.8938 3.79264 14.8681 3.57617 14.7754C2.85285 14.4652 2.42489 13.7095 2.53125 12.9297C2.56315 12.6965 2.65742 12.4891 2.74707 12.3174C2.83891 12.1415 2.9668 11.9297 3.11328 11.6855L3.59473 10.8828C4.04067 10.1396 4.32121 9.30871 4.41699 8.44727L4.62695 6.55859C4.93109 3.82135 7.24499 1.75024 9.99902 1.75ZM14.0791 3.61035C14.7782 4.41416 15.2456 5.4295 15.3711 6.55859L15.3779 6.62109C15.2564 6.64934 15.1301 6.66598 15 6.66602L14.8291 6.6582C14.4085 6.61546 14.0337 6.41673 13.7646 6.12012C13.6679 5.76721 13.5233 5.43582 13.3389 5.13184C13.3355 5.08842 13.333 5.04428 13.333 5C13.3331 4.41996 13.6294 3.90888 14.0791 3.61035Z" fill="#9DA3AE"/>
<path d="M7.58519 14.7206C7.72762 15.5179 8.04149 16.2225 8.4781 16.7251C8.91471 17.2276 9.44966 17.5 10 17.5C10.5503 17.5 11.0853 17.2276 11.5219 16.7251C11.9585 16.2225 12.2724 15.5179 12.4148 14.7206" stroke="#9DA3AE" stroke-width="1.5" stroke-linecap="round"/>
<path d="M15.001 3.08325C16.0594 3.08343 16.917 3.94181 16.917 5.00024C16.9168 6.05853 16.0593 6.91608 15.001 6.91626C13.9425 6.91626 13.0842 6.05864 13.084 5.00024C13.084 3.9417 13.9424 3.08325 15.001 3.08325Z" fill="#DB2961" stroke="#DB2961" stroke-width="0.5"/>
</svg>
