<svg width="20" height="20" viewBox="0 0 20 20" fill="none" xmlns="http://www.w3.org/2000/svg">
<path d="M13 8.26667L7 4.80667" stroke="#394150" stroke-width="1.5" stroke-linecap="round" stroke-linejoin="round"/>
<path d="M16 12.6667V7.33332C15.9998 7.0995 15.938 6.86986 15.821 6.66743C15.704 6.465 15.5358 6.29689 15.3333 6.17999L10.6667 3.51332C10.464 3.39629 10.234 3.33469 10 3.33469C9.76595 3.33469 9.53603 3.39629 9.33333 3.51332L4.66667 6.17999C4.46418 6.29689 4.29599 6.465 4.17897 6.66743C4.06196 6.86986 4.00024 7.0995 4 7.33332V12.6667C4.00024 12.9005 4.06196 13.1301 4.17897 13.3325C4.29599 13.535 4.46418 13.7031 4.66667 13.82L9.33333 16.4867C9.53603 16.6037 9.76595 16.6653 10 16.6653C10.234 16.6653 10.464 16.6037 10.6667 16.4867L15.3333 13.82C15.5358 13.7031 15.704 13.535 15.821 13.3325C15.938 13.1301 15.9998 12.9005 16 12.6667Z" stroke="#394150" stroke-width="1.5" stroke-linecap="round" stroke-linejoin="round"/>
<path d="M4.19336 6.66666L10 9.99999L15.8067 6.66666" stroke="#394150" stroke-width="1.5" stroke-linecap="round" stroke-linejoin="round"/>
<path d="M10 16.6667V10" stroke="#394150" stroke-width="1.5" stroke-linecap="round" stroke-linejoin="round"/>
</svg>
