<svg width="20" height="20" viewBox="0 0 20 20" fill="none" xmlns="http://www.w3.org/2000/svg">
<g clip-path="url(#clip0_16321_48995)">
<path d="M7.33317 16.6667C7.70136 16.6667 7.99984 16.3682 7.99984 16C7.99984 15.6318 7.70136 15.3333 7.33317 15.3333C6.96498 15.3333 6.6665 15.6318 6.6665 16C6.6665 16.3682 6.96498 16.6667 7.33317 16.6667Z" stroke="#394150" stroke-width="1.5" stroke-linecap="round" stroke-linejoin="round"/>
<path d="M14.6667 16.6667C15.0349 16.6667 15.3333 16.3682 15.3333 16C15.3333 15.6318 15.0349 15.3333 14.6667 15.3333C14.2985 15.3333 14 15.6318 14 16C14 16.3682 14.2985 16.6667 14.6667 16.6667Z" stroke="#394150" stroke-width="1.5" stroke-linecap="round" stroke-linejoin="round"/>
<path d="M3.3667 3.36667H4.70003L6.47337 11.6467C6.53842 11.9499 6.70715 12.221 6.95051 12.4132C7.19387 12.6055 7.49664 12.7069 7.8067 12.7H14.3267C14.6301 12.6995 14.9244 12.5955 15.1607 12.4052C15.3971 12.2149 15.5615 11.9497 15.6267 11.6533L16.7267 6.7H5.41337" stroke="#394150" stroke-width="1.5" stroke-linecap="round" stroke-linejoin="round"/>
</g>
<defs>
<clipPath id="clip0_16321_48995">
<rect width="16" height="16" fill="white" transform="translate(2 2)"/>
</clipPath>
</defs>
</svg>
