<svg width="20" height="20" viewBox="0 0 20 20" fill="none" xmlns="http://www.w3.org/2000/svg">
<g clip-path="url(#clip0_3026_19187)">
<path d="M7.33268 16.6666C7.70087 16.6666 7.99935 16.3681 7.99935 15.9999C7.99935 15.6317 7.70087 15.3333 7.33268 15.3333C6.96449 15.3333 6.66602 15.6317 6.66602 15.9999C6.66602 16.3681 6.96449 16.6666 7.33268 16.6666Z" stroke="#4D5562" stroke-width="1.5" stroke-linecap="round" stroke-linejoin="round"/>
<path d="M14.6667 16.6666C15.0349 16.6666 15.3333 16.3681 15.3333 15.9999C15.3333 15.6317 15.0349 15.3333 14.6667 15.3333C14.2985 15.3333 14 15.6317 14 15.9999C14 16.3681 14.2985 16.6666 14.6667 16.6666Z" stroke="#4D5562" stroke-width="1.5" stroke-linecap="round" stroke-linejoin="round"/>
<path d="M3.36719 3.3667H4.70052L6.47385 11.6467C6.53891 11.9499 6.70763 12.221 6.951 12.4133C7.19436 12.6055 7.49712 12.7069 7.80719 12.7H14.3272C14.6306 12.6995 14.9248 12.5956 15.1612 12.4053C15.3976 12.215 15.5619 11.9497 15.6272 11.6534L16.7272 6.70003H5.41385" stroke="#4D5562" stroke-width="1.5" stroke-linecap="round" stroke-linejoin="round"/>
</g>
<defs>
<clipPath id="clip0_3026_19187">
<rect width="16" height="16" fill="white" transform="translate(2 2)"/>
</clipPath>
</defs>
</svg>
