<svg width="24" height="24" viewBox="0 0 24 24" fill="none" xmlns="http://www.w3.org/2000/svg">
<path d="M8.6567 9.68577L5.93425 12.4082C5.86515 12.4773 5.81805 12.5653 5.79888 12.6612L5.18055 15.7528C5.14183 15.9464 5.04667 16.1242 4.90707 16.2638L2.99985 18.1711C2.2188 18.9521 2.2188 20.2184 2.99985 20.9995C3.7809 21.7805 5.04723 21.7805 5.82828 20.9995L7.7355 19.0923C7.8751 18.9527 8.0529 18.8575 8.24649 18.8188L11.3382 18.2004C11.434 18.1813 11.522 18.1342 11.5911 18.0651L19.2633 10.3929C20.8254 8.83078 20.8254 6.29812 19.2633 4.73603C17.7012 3.17393 15.1685 3.17393 13.6064 4.73603L11.4851 6.85735M8.6567 9.68577L11.4851 6.85735M8.6567 9.68577L11.4851 12.5142M11.4851 6.85735L14.3136 9.68577" stroke="#434CE8" stroke-width="1.5" stroke-linecap="round" stroke-linejoin="round"/>
</svg>
