<svg width="38" height="38" viewBox="0 0 38 38" fill="none" xmlns="http://www.w3.org/2000/svg">
<path fill-rule="evenodd" clip-rule="evenodd" d="M9.92499 19.0003C9.92499 13.9883 13.988 9.92529 19 9.92529C24.0119 9.92529 28.0749 13.9883 28.0749 19.0003C28.0749 24.0123 24.0119 28.0753 19 28.0753C13.988 28.0753 9.92499 24.0123 9.92499 19.0003ZM16.375 15.2086C16.0528 14.8864 15.5304 14.8864 15.2083 15.2086C14.8861 15.5308 14.8861 16.0532 15.2083 16.3753L17.8332 19.0003L15.2083 21.6253C14.8861 21.9475 14.8861 22.4698 15.2083 22.792C15.5304 23.1142 16.0528 23.1142 16.375 22.792L19 20.167L21.6249 22.792C21.9471 23.1142 22.4695 23.1142 22.7916 22.792C23.1138 22.4698 23.1138 21.9475 22.7916 21.6253L20.1667 19.0003L22.7916 16.3753C23.1138 16.0532 23.1138 15.5308 22.7916 15.2086C22.4695 14.8864 21.9471 14.8864 21.6249 15.2086L19 17.8336L16.375 15.2086Z" fill="#37383C" fill-opacity="0.28"/>
</svg>
