<svg width="26" height="24" viewBox="0 0 26 24" fill="none" xmlns="http://www.w3.org/2000/svg">
<path fill-rule="evenodd" clip-rule="evenodd" d="M3.92475 12.0001C3.92475 6.98813 7.98775 2.92511 12.9997 2.92511C18.0117 2.92511 22.0747 6.98813 22.0747 12.0001C22.0747 17.0121 18.0117 21.0751 12.9997 21.0751C7.98775 21.0751 3.92475 17.0121 3.92475 12.0001ZM10.3747 8.20844C10.0526 7.88625 9.53021 7.88625 9.20802 8.20844C8.88584 8.53062 8.88584 9.05298 9.20802 9.37516L11.833 12.0001L9.20802 14.6251C8.88584 14.9473 8.88584 15.4696 9.20802 15.7918C9.53021 16.114 10.0526 16.114 10.3747 15.7918L12.9997 13.1669L15.6247 15.7918C15.9468 16.114 16.4692 16.114 16.7914 15.7918C17.1136 15.4696 17.1136 14.9473 16.7914 14.6251L14.1664 12.0001L16.7914 9.37516C17.1136 9.05298 17.1136 8.53062 16.7914 8.20844C16.4692 7.88625 15.9468 7.88625 15.6247 8.20844L12.9997 10.8334L10.3747 8.20844Z" fill="#37383C" fill-opacity="0.28"/>
</svg>
