<svg width="20" height="20" viewBox="0 0 20 20" fill="none" xmlns="http://www.w3.org/2000/svg">
<path d="M12.0002 3.33333H8.00016C7.63197 3.33333 7.3335 3.63181 7.3335 3.99999V5.33333C7.3335 5.70152 7.63197 5.99999 8.00016 5.99999H12.0002C12.3684 5.99999 12.6668 5.70152 12.6668 5.33333V3.99999C12.6668 3.63181 12.3684 3.33333 12.0002 3.33333Z" stroke="#394150" stroke-width="1.5" stroke-linecap="round" stroke-linejoin="round"/>
<path d="M12.6665 4.66667H13.9998C14.3535 4.66667 14.6926 4.80715 14.9426 5.0572C15.1927 5.30724 15.3332 5.64638 15.3332 6.00001V15.3333C15.3332 15.687 15.1927 16.0261 14.9426 16.2761C14.6926 16.5262 14.3535 16.6667 13.9998 16.6667H5.99984C5.64622 16.6667 5.30708 16.5262 5.05703 16.2761C4.80698 16.0261 4.6665 15.687 4.6665 15.3333V6.00001C4.6665 5.64638 4.80698 5.30724 5.05703 5.0572C5.30708 4.80715 5.64622 4.66667 5.99984 4.66667H7.33317" stroke="#394150" stroke-width="1.5" stroke-linecap="round" stroke-linejoin="round"/>
<path d="M10 9.33333H12.6667" stroke="#394150" stroke-width="1.5" stroke-linecap="round" stroke-linejoin="round"/>
<path d="M10 12.6667H12.6667" stroke="#394150" stroke-width="1.5" stroke-linecap="round" stroke-linejoin="round"/>
<path d="M7.3335 9.33333H7.34016" stroke="#394150" stroke-width="1.5" stroke-linecap="round" stroke-linejoin="round"/>
<path d="M7.3335 12.6667H7.34016" stroke="#394150" stroke-width="1.5" stroke-linecap="round" stroke-linejoin="round"/>
</svg>
