<svg width="20" height="20" viewBox="0 0 20 20" fill="none" xmlns="http://www.w3.org/2000/svg">
<path d="M12.0007 3.33325H8.00065C7.63246 3.33325 7.33398 3.63173 7.33398 3.99992V5.33325C7.33398 5.70144 7.63246 5.99992 8.00065 5.99992H12.0007C12.3688 5.99992 12.6673 5.70144 12.6673 5.33325V3.99992C12.6673 3.63173 12.3688 3.33325 12.0007 3.33325Z" stroke="#4D5562" stroke-width="1.5" stroke-linecap="round" stroke-linejoin="round"/>
<path d="M12.666 4.66675H13.9993C14.353 4.66675 14.6921 4.80722 14.9422 5.05727C15.1922 5.30732 15.3327 5.64646 15.3327 6.00008V15.3334C15.3327 15.687 15.1922 16.0262 14.9422 16.2762C14.6921 16.5263 14.353 16.6667 13.9993 16.6667H5.99935C5.64573 16.6667 5.30659 16.5263 5.05654 16.2762C4.80649 16.0262 4.66602 15.687 4.66602 15.3334V6.00008C4.66602 5.64646 4.80649 5.30732 5.05654 5.05727C5.30659 4.80722 5.64573 4.66675 5.99935 4.66675H7.33268" stroke="#4D5562" stroke-width="1.5" stroke-linecap="round" stroke-linejoin="round"/>
<path d="M10 9.33325H12.6667" stroke="#4D5562" stroke-width="1.5" stroke-linecap="round" stroke-linejoin="round"/>
<path d="M10 12.6667H12.6667" stroke="#4D5562" stroke-width="1.5" stroke-linecap="round" stroke-linejoin="round"/>
<path d="M7.33398 9.33325H7.34065" stroke="#4D5562" stroke-width="1.5" stroke-linecap="round" stroke-linejoin="round"/>
<path d="M7.33398 12.6667H7.34065" stroke="#4D5562" stroke-width="1.5" stroke-linecap="round" stroke-linejoin="round"/>
</svg>
