<svg width="20" height="20" viewBox="0 0 20 20" fill="none" xmlns="http://www.w3.org/2000/svg">
<path fill-rule="evenodd" clip-rule="evenodd" d="M12.2588 2.7915C12.9851 2.79164 13.6009 3.17538 13.8252 3.7085H14C14.5524 3.70863 15.083 3.92826 15.4736 4.31885C15.8639 4.70942 16.0839 5.23936 16.084 5.7915V15.1255C16.0838 15.6777 15.864 16.2076 15.4736 16.5981C15.083 16.9887 14.5524 17.2084 14 17.2085H6C5.44778 17.2084 4.91793 16.9885 4.52734 16.5981C4.1368 16.2076 3.91619 15.6778 3.91602 15.1255V5.7915C3.9161 5.23909 4.13672 4.70947 4.52734 4.31885C4.91796 3.92827 5.44762 3.70858 6 3.7085H6.00879C6.23327 3.17527 6.84967 2.7915 7.57617 2.7915H12.2588ZM7.66699 11.7085C7.25278 11.7085 6.91699 12.0443 6.91699 12.4585C6.91717 12.8726 7.25289 13.2085 7.66699 13.2085H7.67383C8.08785 13.2084 8.42365 12.8725 8.42383 12.4585C8.42383 12.0443 8.08796 11.7086 7.67383 11.7085H7.66699ZM10.334 11.7085C9.91977 11.7085 9.58398 12.0443 9.58398 12.4585C9.58417 12.8726 9.91988 13.2085 10.334 13.2085H13.001C13.4147 13.2081 13.7508 12.8723 13.751 12.4585C13.751 12.0446 13.4148 11.7089 13.001 11.7085H10.334ZM7.66699 8.37451C7.25289 8.37451 6.91717 8.71045 6.91699 9.12451C6.91699 9.53873 7.25278 9.87451 7.66699 9.87451H7.67383C8.08796 9.87442 8.42383 9.53867 8.42383 9.12451C8.42365 8.71051 8.08785 8.3746 7.67383 8.37451H7.66699ZM10.334 8.37451C9.91988 8.37451 9.58417 8.71045 9.58398 9.12451C9.58398 9.53873 9.91977 9.87451 10.334 9.87451H13.001C13.4148 9.87407 13.751 9.53845 13.751 9.12451C13.7508 8.71072 13.4147 8.37495 13.001 8.37451H10.334ZM7.67285 5.35205H12.1611V4.23096H7.67285V5.35205Z" fill="white"/>
</svg>
