<svg width="199" height="32" viewBox="0 0 199 32" fill="none" xmlns="http://www.w3.org/2000/svg">
<path d="M183.672 6H187.095V18.7853H188.216L193.548 12.6653H198.063L191.185 20.2396L198.093 27.8138H193.579L188.216 21.6635H187.095V27.8138H183.672V6Z" fill="#14191E"/>
<path d="M175.67 28.3051C174.215 28.3051 172.933 27.9819 171.822 27.3356C170.711 26.669 169.843 25.7601 169.216 24.6088C168.61 23.4576 168.307 22.1144 168.307 20.5793C168.307 19.0241 168.621 17.6607 169.247 16.4893C169.873 15.3178 170.741 14.3988 171.852 13.7322C172.983 13.0657 174.286 12.7324 175.761 12.7324C177.316 12.7324 178.699 13.1061 179.911 13.8534C181.123 14.5805 181.992 15.5702 182.517 16.8225L179.396 17.8526C179.134 17.2265 178.679 16.7316 178.033 16.3681C177.407 15.9843 176.69 15.7924 175.882 15.7924C175.074 15.7924 174.377 15.9944 173.791 16.3984C173.206 16.7821 172.751 17.3275 172.428 18.0344C172.125 18.7413 171.973 19.5795 171.973 20.549C171.973 22.0033 172.327 23.1546 173.034 24.0029C173.741 24.831 174.71 25.2451 175.942 25.2451C176.73 25.2451 177.437 25.0734 178.063 24.73C178.689 24.3665 179.174 23.8615 179.517 23.2152L182.577 24.2756C181.992 25.5077 181.073 26.4873 179.82 27.2144C178.588 27.9415 177.205 28.3051 175.67 28.3051Z" fill="#14191E"/>
<path d="M159.397 28.3051C157.943 28.3051 156.64 27.992 155.489 27.3659C154.337 26.7195 153.438 25.8207 152.792 24.6694C152.146 23.498 151.823 22.1245 151.823 20.549C151.823 18.9534 152.156 17.5698 152.822 16.3984C153.489 15.2269 154.408 14.3281 155.579 13.7019C156.751 13.0556 158.054 12.7324 159.488 12.7324C160.942 12.7324 162.245 13.0556 163.396 13.7019C164.568 14.3281 165.497 15.2269 166.183 16.3984C166.87 17.5496 167.214 18.913 167.214 20.4885C167.214 22.0841 166.86 23.4677 166.153 24.6391C165.466 25.8106 164.527 26.7195 163.335 27.3659C162.164 27.992 160.851 28.3051 159.397 28.3051ZM159.367 25.2451C160.074 25.2451 160.74 25.0734 161.366 24.73C162.013 24.3867 162.538 23.8716 162.942 23.1849C163.346 22.478 163.548 21.5791 163.548 20.4885C163.548 19.4382 163.356 18.5696 162.972 17.8829C162.588 17.176 162.083 16.6508 161.457 16.3075C160.831 15.9641 160.154 15.7924 159.427 15.7924C158.72 15.7924 158.064 15.9641 157.458 16.3075C156.872 16.6508 156.397 17.176 156.034 17.8829C155.67 18.5696 155.489 19.4584 155.489 20.549C155.489 21.5993 155.66 22.478 156.004 23.1849C156.367 23.8716 156.842 24.3867 157.428 24.73C158.013 25.0734 158.66 25.2451 159.367 25.2451Z" fill="#14191E"/>
<path d="M143.7 12.766V8.52441H147.184V12.766H150.729V15.7654H147.184V22.4913C147.184 23.4002 147.356 24.0365 147.699 24.4C148.042 24.7434 148.487 24.9353 149.032 24.9757C149.598 24.9959 150.163 24.9656 150.729 24.8848V27.7933C149.86 27.9751 149.002 28.0256 148.154 27.9448C147.325 27.8842 146.578 27.662 145.912 27.2783C145.245 26.8743 144.71 26.2886 144.306 25.521C143.902 24.7535 143.7 23.7436 143.7 22.4913V15.7654H141.579V12.766H143.7Z" fill="#14191E"/>
<path d="M136.461 12.1689C136.402 11.5673 136.2 11.0446 135.855 10.6008C135.519 10.157 135.056 9.82657 134.464 9.6096C133.882 9.38277 133.202 9.26935 132.422 9.26935C131.633 9.26935 130.943 9.3877 130.351 9.6244C129.77 9.86109 129.316 10.1915 128.99 10.6156C128.675 11.0396 128.517 11.5278 128.517 12.0801C128.517 12.8888 128.852 13.5151 129.523 13.9589C130.203 14.4027 131.091 14.7627 132.186 15.0388L134.183 15.5418C136.086 15.9856 137.61 16.6907 138.754 17.6572C139.898 18.6237 140.475 19.97 140.485 21.6959C140.485 22.9484 140.159 24.0529 139.509 25.0096C138.867 25.9662 137.936 26.7108 136.713 27.2434C135.5 27.776 134.045 28.0422 132.349 28.0422C130.692 28.0422 129.247 27.7858 128.014 27.273C126.791 26.7503 125.839 25.9909 125.159 24.9948C124.478 23.9987 124.109 22.8004 124.049 21.4H127.837C127.896 22.1298 128.127 22.7462 128.532 23.2492C128.936 23.7423 129.464 24.1171 130.115 24.3735C130.766 24.62 131.5 24.7433 132.319 24.7433C133.167 24.7433 133.917 24.6151 134.568 24.3587C135.218 24.1023 135.721 23.7423 136.076 23.2788C136.441 22.8054 136.624 22.2679 136.624 21.6663C136.624 21.1337 136.471 20.685 136.165 20.3201C135.859 19.9453 135.426 19.6346 134.863 19.3881C134.311 19.1415 133.611 18.9098 132.763 18.6928L130.322 18.0715C128.487 17.5882 127.077 16.8781 126.091 15.9412C125.115 15.0043 124.626 13.7912 124.626 12.302C124.626 11.0594 124.967 9.96465 125.647 9.01786C126.328 8.06122 127.264 7.32155 128.458 6.79885C129.651 6.26628 130.992 6 132.482 6C133.971 6 135.292 6.26135 136.446 6.78405C137.61 7.30676 138.517 8.03657 139.168 8.97348C139.819 9.90054 140.159 10.9657 140.189 12.1689H136.461Z" fill="#14191E"/>
<path d="M112.734 12.8709H115.824L116.097 14.7493C116.501 14.2444 116.975 13.8303 117.521 13.5072C118.066 13.1638 118.652 12.9315 119.278 12.8103C119.924 12.6891 120.571 12.7093 121.217 12.8709V16.0218C120.692 15.84 120.126 15.7996 119.52 15.9006C118.935 15.9814 118.389 16.2036 117.884 16.5672C117.379 16.9105 116.965 17.4054 116.642 18.0517C116.319 18.6778 116.157 19.4555 116.157 20.3846V28.0194H112.734V12.8709Z" fill="#14191E"/>
<path d="M103.209 28.3051C101.755 28.3051 100.452 27.992 99.3005 27.3659C98.1492 26.7195 97.2504 25.8207 96.604 24.6694C95.9577 23.498 95.6345 22.1245 95.6345 20.549C95.6345 18.9534 95.9678 17.5698 96.6343 16.3984C97.3009 15.2269 98.2199 14.3281 99.3913 13.7019C100.563 13.0556 101.866 12.7324 103.3 12.7324C104.754 12.7324 106.057 13.0556 107.208 13.7019C108.379 14.3281 109.309 15.2269 109.995 16.3984C110.682 17.5496 111.025 18.913 111.025 20.4885C111.025 22.0841 110.672 23.4677 109.965 24.6391C109.278 25.8106 108.339 26.7195 107.147 27.3659C105.976 27.992 104.663 28.3051 103.209 28.3051ZM103.178 25.2451C103.885 25.2451 104.552 25.0734 105.178 24.73C105.824 24.3867 106.35 23.8716 106.754 23.1849C107.157 22.478 107.359 21.5791 107.359 20.4885C107.359 19.4382 107.168 18.5696 106.784 17.8829C106.4 17.176 105.895 16.6508 105.269 16.3075C104.643 15.9641 103.966 15.7924 103.239 15.7924C102.532 15.7924 101.876 15.9641 101.27 16.3075C100.684 16.6508 100.209 17.176 99.8458 17.8829C99.4822 18.5696 99.3005 19.4584 99.3005 20.549C99.3005 21.5993 99.4721 22.478 99.8155 23.1849C100.179 23.8716 100.654 24.3867 101.239 24.73C101.825 25.0734 102.472 25.2451 103.178 25.2451Z" fill="#14191E"/>
<path d="M87.7387 12.766V8.52441H91.2228V12.766H94.7676V15.7654H91.2228V22.4913C91.2228 23.4002 91.3945 24.0365 91.7379 24.4C92.0812 24.7434 92.5256 24.9353 93.0709 24.9757C93.6365 24.9959 94.202 24.9656 94.7676 24.8848V27.7933C93.899 27.9751 93.0406 28.0256 92.1923 27.9448C91.3642 27.8842 90.6169 27.662 89.9503 27.2783C89.2838 26.8743 88.7485 26.2886 88.3446 25.521C87.9406 24.7535 87.7387 23.7436 87.7387 22.4913V15.7654H85.6179V12.766H87.7387Z" fill="#14191E"/>
<path d="M77.8433 28.3051C76.389 28.3051 75.1064 27.9819 73.9955 27.3356C72.8846 26.669 72.0161 25.7601 71.39 24.6088C70.7841 23.4576 70.4811 22.1144 70.4811 20.5793C70.4811 19.0241 70.7941 17.6607 71.4203 16.4893C72.0464 15.3178 72.9149 14.3988 74.0258 13.7322C75.1569 13.0657 76.4597 12.7324 77.9341 12.7324C79.4894 12.7324 80.873 13.1061 82.0848 13.8534C83.2967 14.5805 84.1652 15.5702 84.6904 16.8225L81.5698 17.8526C81.3072 17.2265 80.8528 16.7316 80.2064 16.3681C79.5803 15.9843 78.8633 15.7924 78.0553 15.7924C77.2474 15.7924 76.5506 15.9944 75.9648 16.3984C75.3791 16.7821 74.9246 17.3275 74.6015 18.0344C74.2985 18.7413 74.147 19.5795 74.147 20.549C74.147 22.0033 74.5005 23.1546 75.2074 24.0029C75.9143 24.831 76.8838 25.2451 78.1159 25.2451C78.9036 25.2451 79.6106 25.0734 80.2367 24.73C80.8629 24.3665 81.3476 23.8615 81.691 23.2152L84.751 24.2756C84.1652 25.5077 83.2462 26.4873 81.9939 27.2144C80.7619 27.9415 79.3783 28.3051 77.8433 28.3051Z" fill="#14191E"/>
<path d="M61.7975 28.3051C60.3433 28.3051 59.0405 27.992 57.8892 27.3659C56.7379 26.7195 55.8391 25.8207 55.1928 24.6694C54.5464 23.498 54.2233 22.1245 54.2233 20.549C54.2233 18.9534 54.5565 17.5698 55.2231 16.3984C55.8896 15.2269 56.8086 14.3281 57.9801 13.7019C59.1516 13.0556 60.4543 12.7324 61.8884 12.7324C63.3427 12.7324 64.6454 13.0556 65.7967 13.7019C66.9682 14.3281 67.8973 15.2269 68.584 16.3984C69.2708 17.5496 69.6141 18.913 69.6141 20.4885C69.6141 22.0841 69.2607 23.4677 68.5537 24.6391C67.867 25.8106 66.9278 26.7195 65.7361 27.3659C64.5646 27.992 63.2518 28.3051 61.7975 28.3051ZM61.7672 25.2451C62.4741 25.2451 63.1407 25.0734 63.7668 24.73C64.4132 24.3867 64.9383 23.8716 65.3423 23.1849C65.7462 22.478 65.9482 21.5791 65.9482 20.4885C65.9482 19.4382 65.7563 18.5696 65.3726 17.8829C64.9888 17.176 64.4838 16.6508 63.8577 16.3075C63.2316 15.9641 62.5549 15.7924 61.8278 15.7924C61.1209 15.7924 60.4644 15.9641 59.8585 16.3075C59.2728 16.6508 58.7981 17.176 58.4345 17.8829C58.071 18.5696 57.8892 19.4584 57.8892 20.549C57.8892 21.5993 58.0609 22.478 58.4043 23.1849C58.7678 23.8716 59.2425 24.3867 59.8282 24.73C60.414 25.0734 61.0603 25.2451 61.7672 25.2451Z" fill="#14191E"/>
<path d="M41.8162 6C44.1714 6 46.2036 6.44813 47.9128 7.34438C49.6427 8.24063 50.9767 9.52248 51.9146 11.1899C52.8734 12.8365 53.3528 14.7854 53.3528 17.0364C53.3528 19.2666 52.8734 21.1946 51.9146 22.8204C50.9767 24.4461 49.6427 25.6967 47.9128 26.5721C46.2036 27.4475 44.1714 27.8852 41.8162 27.8852H34V6H41.8162ZM41.8162 24.79C44.3173 24.79 46.2349 24.1126 47.5689 22.7578C48.9237 21.3822 49.6011 19.4751 49.6011 17.0364C49.6011 14.5769 48.9237 12.6385 47.5689 11.2212C46.2349 9.80386 44.3173 9.0952 41.8162 9.0952H37.7205V24.79H41.8162Z" fill="#14191E"/>
<g clip-path="url(#clip0_1385_33825)">
<path d="M17.3334 8.33333C17.3334 5.9401 15.3933 4 13 4C10.6068 4 8.66669 5.9401 8.66669 8.33333V17C8.66669 19.3932 10.6068 21.3333 13 21.3333C15.3933 21.3333 17.3334 19.3932 17.3334 17V8.33333Z" fill="#8EC7FF"/>
<path d="M13 12.667H4.33333C1.9401 12.667 0 14.6071 0 17.0003C0 19.3936 1.9401 21.3337 4.33333 21.3337H13C15.3932 21.3337 17.3333 19.3936 17.3333 17.0003C17.3333 14.6071 15.3932 12.667 13 12.667Z" fill="#8EC7FF"/>
<path d="M8.66669 17V25.6667C8.66669 28.0599 10.6068 30 13 30C15.3933 30 17.3334 28.0599 17.3334 25.6667V17C17.3334 14.6068 15.3933 12.6667 13 12.6667C10.6068 12.6667 8.66669 14.6068 8.66669 17Z" fill="#008AFF"/>
<path d="M21.6667 12.667H13C10.6068 12.667 8.66669 14.6071 8.66669 17.0003C8.66669 19.3936 10.6068 21.3337 13 21.3337H21.6667C24.0599 21.3337 26 19.3936 26 17.0003C26 14.6071 24.0599 12.667 21.6667 12.667Z" fill="#008AFF"/>
<path d="M8.66669 17.0003V21.3337H13C15.393 21.3337 17.3334 19.3933 17.3334 17.0003C17.3334 14.6074 15.393 12.667 13 12.667C10.6071 12.667 8.66669 14.6074 8.66669 17.0003Z" fill="#F1F5F8"/>
</g>
<defs>
<clipPath id="clip0_1385_33825">
<rect width="26" height="26" fill="white" transform="translate(0 4)"/>
</clipPath>
</defs>
</svg>
