<svg width="198" height="32" viewBox="0 0 198 32" fill="none" xmlns="http://www.w3.org/2000/svg">
<path d="M183.587 5H187.009V17.6104H188.129L193.458 11.5741H197.97L191.096 19.0447L198 26.5153H193.488L188.129 20.4492H187.009V26.5153H183.587V5Z" fill="#14191E"/>
<path d="M175.589 27C174.136 27 172.854 26.6812 171.744 26.0437C170.634 25.3863 169.766 24.4899 169.14 23.3543C168.534 22.2188 168.231 20.894 168.231 19.38C168.231 17.846 168.544 16.5013 169.17 15.3459C169.796 14.1904 170.664 13.284 171.774 12.6266C172.905 11.9691 174.207 11.6404 175.68 11.6404C177.235 11.6404 178.617 12.009 179.829 12.7461C181.04 13.4633 181.908 14.4394 182.433 15.6746L179.314 16.6906C179.051 16.073 178.597 15.5849 177.951 15.2263C177.325 14.8478 176.609 14.6586 175.801 14.6586C174.994 14.6586 174.298 14.8578 173.712 15.2562C173.127 15.6347 172.672 16.1726 172.35 16.8699C172.047 17.5671 171.895 18.3939 171.895 19.3501C171.895 20.7844 172.249 21.92 172.955 22.7567C173.662 23.5735 174.631 23.9819 175.862 23.9819C176.649 23.9819 177.356 23.8125 177.982 23.4739C178.607 23.1153 179.092 22.6172 179.435 21.9797L182.493 23.0256C181.908 24.2408 180.989 25.207 179.738 25.9242C178.506 26.6414 177.124 27 175.589 27Z" fill="#14191E"/>
<path d="M159.326 27C157.873 27 156.571 26.6912 155.42 26.0736C154.27 25.4361 153.371 24.5496 152.725 23.4141C152.079 22.2586 151.756 20.904 151.756 19.3501C151.756 17.7763 152.089 16.4117 152.756 15.2562C153.422 14.1008 154.34 13.2142 155.511 12.5967C156.682 11.9592 157.984 11.6404 159.417 11.6404C160.871 11.6404 162.173 11.9592 163.323 12.5967C164.494 13.2142 165.423 14.1008 166.109 15.2562C166.795 16.3917 167.139 17.7364 167.139 19.2903C167.139 20.8641 166.785 22.2288 166.079 23.3842C165.392 24.5397 164.454 25.4361 163.263 26.0736C162.092 26.6912 160.78 27 159.326 27ZM159.296 23.9819C160.003 23.9819 160.669 23.8125 161.295 23.4739C161.94 23.1352 162.465 22.6272 162.869 21.9499C163.273 21.2526 163.475 20.3661 163.475 19.2903C163.475 18.2544 163.283 17.3978 162.899 16.7204C162.516 16.0232 162.011 15.5052 161.385 15.1666C160.76 14.8279 160.083 14.6586 159.357 14.6586C158.65 14.6586 157.994 14.8279 157.388 15.1666C156.803 15.5052 156.329 16.0232 155.965 16.7204C155.602 17.3978 155.42 18.2743 155.42 19.3501C155.42 20.386 155.592 21.2526 155.935 21.9499C156.298 22.6272 156.773 23.1352 157.358 23.4739C157.944 23.8125 158.59 23.9819 159.296 23.9819Z" fill="#14191E"/>
<path d="M143.638 11.6737V7.49017H147.12V11.6737H150.663V14.6321H147.12V21.2659C147.12 22.1624 147.291 22.7899 147.635 23.1485C147.978 23.4872 148.422 23.6765 148.967 23.7163C149.532 23.7362 150.097 23.7063 150.663 23.6266V26.4954C149.795 26.6747 148.937 26.7245 148.089 26.6448C147.261 26.585 146.514 26.3659 145.848 25.9874C145.182 25.5889 144.647 25.0112 144.243 24.2542C143.84 23.4972 143.638 22.5011 143.638 21.2659V14.6321H141.518V11.6737H143.638Z" fill="#14191E"/>
<path d="M136.403 11.0844C136.344 10.4911 136.142 9.97553 135.797 9.5378C135.462 9.10007 134.999 8.7742 134.407 8.5602C133.826 8.33647 133.146 8.22461 132.367 8.22461C131.578 8.22461 130.888 8.34134 130.297 8.57479C129.715 8.80825 129.262 9.13412 128.937 9.55239C128.621 9.97067 128.464 10.4522 128.464 10.9969C128.464 11.7945 128.799 12.4122 129.469 12.85C130.149 13.2877 131.036 13.6427 132.13 13.9151L134.126 14.4112C136.029 14.8489 137.552 15.5444 138.695 16.4977C139.838 17.451 140.415 18.7788 140.425 20.481C140.425 21.7164 140.1 22.8059 139.449 23.7494C138.808 24.693 137.877 25.4274 136.655 25.9527C135.442 26.4779 133.988 26.7406 132.293 26.7406C130.637 26.7406 129.193 26.4877 127.961 25.9819C126.739 25.4663 125.788 24.7173 125.107 23.7348C124.427 22.7524 124.058 21.5705 123.999 20.1892H127.784C127.843 20.909 128.074 21.517 128.478 22.0131C128.883 22.4995 129.41 22.8691 130.06 23.122C130.711 23.3652 131.445 23.4868 132.263 23.4868C133.111 23.4868 133.86 23.3603 134.511 23.1074C135.161 22.8545 135.664 22.4995 136.019 22.0423C136.384 21.5754 136.566 21.0452 136.566 20.4519C136.566 19.9266 136.413 19.484 136.108 19.1241C135.802 18.7544 135.368 18.448 134.806 18.2049C134.254 17.9617 133.555 17.7331 132.707 17.5191L130.267 16.9063C128.434 16.4296 127.025 15.7292 126.039 14.8052C125.063 13.8811 124.575 12.6846 124.575 11.2158C124.575 9.99012 124.915 8.91039 125.595 7.97656C126.275 7.03301 127.212 6.30346 128.404 5.78791C129.597 5.26264 130.938 5 132.426 5C133.914 5 135.235 5.25777 136.388 5.77332C137.552 6.28887 138.458 7.00869 139.109 7.93279C139.759 8.84716 140.1 9.89771 140.129 11.0844H136.403Z" fill="#14191E"/>
<path d="M112.689 11.777H115.778L116.051 13.6298C116.454 13.1317 116.929 12.7233 117.474 12.4046C118.019 12.0659 118.604 11.8368 119.23 11.7173C119.876 11.5978 120.522 11.6177 121.168 11.777V14.8848C120.643 14.7055 120.078 14.6657 119.472 14.7653C118.887 14.845 118.342 15.0641 117.837 15.4227C117.332 15.7614 116.919 16.2494 116.596 16.8869C116.273 17.5045 116.111 18.2715 116.111 19.1879V26.7182H112.689V11.777Z" fill="#14191E"/>
<path d="M103.17 27C101.716 27 100.414 26.6912 99.2635 26.0736C98.1128 25.4361 97.2145 24.5496 96.5686 23.4141C95.9226 22.2586 95.5996 20.904 95.5996 19.3501C95.5996 17.7763 95.9327 16.4117 96.5988 15.2562C97.265 14.1008 98.1835 13.2142 99.3543 12.5967C100.525 11.9592 101.827 11.6404 103.26 11.6404C104.714 11.6404 106.016 11.9592 107.167 12.5967C108.337 13.2142 109.266 14.1008 109.952 15.2562C110.639 16.3917 110.982 17.7364 110.982 19.2903C110.982 20.8641 110.629 22.2288 109.922 23.3842C109.236 24.5397 108.297 25.4361 107.106 26.0736C105.935 26.6912 104.623 27 103.17 27ZM103.139 23.9819C103.846 23.9819 104.512 23.8125 105.138 23.4739C105.784 23.1352 106.309 22.6272 106.712 21.9499C107.116 21.2526 107.318 20.3661 107.318 19.2903C107.318 18.2544 107.126 17.3978 106.743 16.7204C106.359 16.0232 105.854 15.5052 105.229 15.1666C104.603 14.8279 103.927 14.6586 103.2 14.6586C102.493 14.6586 101.837 14.8279 101.232 15.1666C100.646 15.5052 100.172 16.0232 99.8085 16.7204C99.4452 17.3978 99.2635 18.2743 99.2635 19.3501C99.2635 20.386 99.4351 21.2526 99.7782 21.9499C100.142 22.6272 100.616 23.1352 101.201 23.4739C101.787 23.8125 102.433 23.9819 103.139 23.9819Z" fill="#14191E"/>
<path d="M87.708 11.6737V7.49017H91.1902V11.6737H94.7329V14.6321H91.1902V21.2659C91.1902 22.1624 91.3617 22.7899 91.7049 23.1485C92.0481 23.4872 92.4922 23.6765 93.0372 23.7163C93.6025 23.7362 94.1677 23.7063 94.7329 23.6266V26.4954C93.8649 26.6747 93.007 26.7245 92.1591 26.6448C91.3315 26.585 90.5846 26.3659 89.9184 25.9874C89.2522 25.5889 88.7173 25.0112 88.3136 24.2542C87.9098 23.4972 87.708 22.5011 87.708 21.2659V14.6321H85.5884V11.6737H87.708Z" fill="#14191E"/>
<path d="M77.8185 27C76.365 27 75.0832 26.6812 73.9729 26.0437C72.8627 25.3863 71.9946 24.4899 71.3688 23.3543C70.7632 22.2188 70.4604 20.894 70.4604 19.38C70.4604 17.846 70.7733 16.5013 71.3991 15.3459C72.0249 14.1904 72.8929 13.284 74.0032 12.6266C75.1336 11.9691 76.4357 11.6404 77.9093 11.6404C79.4637 11.6404 80.8464 12.009 82.0576 12.7461C83.2688 13.4633 84.1369 14.4394 84.6617 15.6746L81.5429 16.6906C81.2805 16.073 80.8263 15.5849 80.1803 15.2263C79.5545 14.8478 78.8379 14.6586 78.0304 14.6586C77.223 14.6586 76.5265 14.8578 75.9411 15.2562C75.3557 15.6347 74.9015 16.1726 74.5785 16.8699C74.2757 17.5671 74.1243 18.3939 74.1243 19.3501C74.1243 20.7844 74.4776 21.92 75.1841 22.7567C75.8906 23.5735 76.8596 23.9819 78.091 23.9819C78.8783 23.9819 79.5848 23.8125 80.2106 23.4739C80.8364 23.1153 81.3208 22.6172 81.664 21.9797L84.7223 23.0256C84.1369 24.2408 83.2184 25.207 81.9668 25.9242C80.7354 26.6414 79.3526 27 77.8185 27Z" fill="#14191E"/>
<path d="M61.7819 27C60.3284 27 59.0264 26.6912 57.8758 26.0736C56.7251 25.4361 55.8268 24.5496 55.1809 23.4141C54.5349 22.2586 54.2119 20.904 54.2119 19.3501C54.2119 17.7763 54.545 16.4117 55.2111 15.2562C55.8773 14.1008 56.7958 13.2142 57.9666 12.5967C59.1374 11.9592 60.4395 11.6404 61.8727 11.6404C63.3262 11.6404 64.6282 11.9592 65.7788 12.5967C66.9496 13.2142 67.8782 14.1008 68.5646 15.2562C69.2509 16.3917 69.5941 17.7364 69.5941 19.2903C69.5941 20.8641 69.2408 22.2288 68.5343 23.3842C67.848 24.5397 66.9093 25.4361 65.7183 26.0736C64.5474 26.6912 63.2353 27 61.7819 27ZM61.7516 23.9819C62.4581 23.9819 63.1243 23.8125 63.7501 23.4739C64.396 23.1352 64.9209 22.6272 65.3246 21.9499C65.7284 21.2526 65.9302 20.3661 65.9302 19.2903C65.9302 18.2544 65.7385 17.3978 65.3549 16.7204C64.9714 16.0232 64.4667 15.5052 63.8409 15.1666C63.2151 14.8279 62.5389 14.6586 61.8122 14.6586C61.1056 14.6586 60.4496 14.8279 59.844 15.1666C59.2586 15.5052 58.7842 16.0232 58.4208 16.7204C58.0575 17.3978 57.8758 18.2743 57.8758 19.3501C57.8758 20.386 58.0474 21.2526 58.3905 21.9499C58.7539 22.6272 59.2283 23.1352 59.8137 23.4739C60.3991 23.8125 61.0451 23.9819 61.7516 23.9819Z" fill="#14191E"/>
<path d="M41.7603 5C44.0987 5 46.1164 5.44492 47.8133 6.33477C49.5309 7.22462 50.8554 8.49731 51.7866 10.1528C52.7385 11.7877 53.2145 13.7226 53.2145 15.9575C53.2145 18.1718 52.7385 20.086 51.7866 21.7002C50.8554 23.3143 49.5309 24.5559 47.8133 25.4251C46.1164 26.2942 44.0987 26.7288 41.7603 26.7288H34V5H41.7603ZM41.7603 23.6558C44.2436 23.6558 46.1474 22.9832 47.4719 21.6381C48.817 20.2723 49.4895 18.3787 49.4895 15.9575C49.4895 13.5156 48.817 11.5911 47.4719 10.1839C46.1474 8.77668 44.2436 8.07308 41.7603 8.07308H37.6939V23.6558H41.7603Z" fill="#14191E"/>
<path d="M13 3C15.3931 3.00014 17.333 4.93989 17.333 7.33301V11.666H21.666C24.059 11.666 25.9987 13.6061 25.999 15.999C25.999 18.3923 24.0592 20.333 21.666 20.333H17.333V24.666C17.333 27.0592 15.3923 28.999 12.999 28.999C10.606 28.9988 8.66602 27.0591 8.66602 24.666V20.333H12.999C13.0085 20.333 13.0179 20.3321 13.0273 20.332C13.0935 20.3316 13.1592 20.3295 13.2246 20.3262C13.3352 20.3205 13.4445 20.3097 13.5527 20.2959C13.6018 20.2896 13.6507 20.2833 13.6992 20.2754C13.6858 20.2776 13.6726 20.2811 13.6592 20.2832C13.6782 20.2803 13.6969 20.2756 13.7158 20.2725C13.7103 20.2734 13.7048 20.2745 13.6992 20.2754C13.7835 20.2617 13.8667 20.2451 13.9492 20.2266C13.9681 20.2223 13.987 20.2183 14.0059 20.2139C14.0939 20.1929 14.1807 20.1689 14.2666 20.1426C14.2574 20.1454 14.2484 20.1486 14.2393 20.1514C14.2941 20.135 14.3485 20.118 14.4023 20.0996C14.3766 20.1084 14.3502 20.1157 14.3242 20.124C14.397 20.1006 14.469 20.0759 14.54 20.0488C14.5111 20.0599 14.4824 20.0716 14.4531 20.082C14.4899 20.0689 14.5262 20.0551 14.5625 20.041C14.5551 20.0439 14.5474 20.046 14.54 20.0488C14.5666 20.0387 14.5929 20.0282 14.6191 20.0176L14.6172 20.0186C14.6198 20.0175 14.6224 20.0167 14.625 20.0156C14.6231 20.0164 14.621 20.0168 14.6191 20.0176C14.7066 19.9822 14.7934 19.946 14.8779 19.9053C14.8098 19.9381 14.74 19.9677 14.6699 19.9971C15.3243 19.7232 15.8977 19.295 16.3428 18.7559C16.3547 18.7414 16.3652 18.7256 16.377 18.7109C16.3749 18.7135 16.3731 18.7162 16.3711 18.7188C16.4048 18.677 16.4395 18.6358 16.4717 18.5928C16.4996 18.5554 16.526 18.5158 16.5527 18.4775C16.5498 18.4818 16.5469 18.486 16.5439 18.4902C16.5599 18.4676 16.5772 18.4458 16.5928 18.4229C16.9045 17.9617 17.1296 17.4373 17.2451 16.873L17.2832 16.6602C17.2942 16.5882 17.3031 16.5155 17.3105 16.4424V16.4434L17.3271 16.2227C17.3309 16.1489 17.333 16.0746 17.333 16C17.333 15.626 17.2854 15.2632 17.1963 14.917C17.1785 14.8479 17.1588 14.7796 17.1377 14.7119C17.0321 14.3725 16.8862 14.0509 16.7051 13.7529C16.5964 13.5741 16.4753 13.4038 16.3428 13.2432C16.2987 13.1897 16.2536 13.1372 16.207 13.0859C16.1138 12.9834 16.0157 12.8852 15.9131 12.792C15.7591 12.652 15.5949 12.5231 15.4219 12.4062C15.3066 12.3284 15.1872 12.2562 15.0645 12.1895C14.8187 12.0559 14.5586 11.9458 14.2871 11.8613C14.1514 11.8191 14.0131 11.7828 13.8721 11.7539C13.8017 11.7395 13.7307 11.7268 13.6592 11.7158C13.5156 11.6939 13.3696 11.6794 13.2217 11.6719C13.148 11.6681 13.0737 11.666 12.999 11.666C10.6063 11.6663 8.66602 13.6072 8.66602 16V20.333H4.33301C1.93987 20.333 0.000106991 18.3931 0 16C3.13832e-07 13.6068 1.9398 11.666 4.33301 11.666H8.66602V7.33301C8.66605 4.9398 10.6068 3 13 3ZM14.3242 20.124C14.305 20.1302 14.2859 20.1367 14.2666 20.1426C14.2859 20.1367 14.305 20.1302 14.3242 20.124ZM16.4717 18.5918C16.4413 18.6325 16.4087 18.6714 16.377 18.7109C16.4219 18.655 16.4657 18.5983 16.5078 18.54C16.4955 18.5571 16.4843 18.575 16.4717 18.5918ZM16.5928 18.4219C16.58 18.4408 16.5658 18.4588 16.5527 18.4775C16.6054 18.4018 16.657 18.3252 16.7051 18.2461C16.6689 18.3056 16.6317 18.3643 16.5928 18.4219Z" fill="url(#paint0_linear_2325_12747)"/>
<defs>
<linearGradient id="paint0_linear_2325_12747" x1="12.9995" y1="11.6663" x2="12.9995" y2="20.4686" gradientUnits="userSpaceOnUse">
<stop stop-color="#81C6FD"/>
<stop offset="1" stop-color="#5053FA"/>
</linearGradient>
</defs>
</svg>
