<svg width="34" height="34" viewBox="0 0 34 34" fill="none" xmlns="http://www.w3.org/2000/svg">
<path d="M18.71 22.4023C18.7898 22.3771 18.869 22.3509 18.9473 22.3223C19.2945 22.1951 19.6259 22.0351 19.9375 21.8457C20.0032 21.8058 20.067 21.7632 20.1309 21.7207C20.1185 21.7289 20.1061 21.737 20.0938 21.7451C20.1775 21.6904 20.2593 21.6332 20.3398 21.5742C20.328 21.5829 20.3166 21.592 20.3047 21.6006C20.3328 21.5804 20.362 21.5617 20.3896 21.541C20.4032 21.5309 20.4153 21.519 20.4287 21.5088C20.4235 21.5127 20.4183 21.5166 20.4131 21.5205C20.4593 21.4855 20.5047 21.4494 20.5498 21.4131C20.5471 21.4153 20.5447 21.4178 20.542 21.4199L20.6035 21.3721C20.5861 21.3864 20.5673 21.399 20.5498 21.4131C20.5842 21.3853 20.6186 21.3576 20.6523 21.3291C20.6859 21.3008 20.7191 21.2722 20.752 21.2432C20.7708 21.2265 20.7909 21.2113 20.8096 21.1943C20.8678 21.1414 20.9235 21.0856 20.9795 21.0303C20.9751 21.0346 20.9712 21.0396 20.9668 21.0439C20.9796 21.0314 20.9932 21.0195 21.0059 21.0068C21.0365 20.9762 21.0648 20.9434 21.0947 20.9121C21.0879 20.9193 21.0811 20.9265 21.0742 20.9336C21.1057 20.901 21.1372 20.8684 21.168 20.835L21.1934 20.8096C21.2328 20.7662 21.2705 20.7213 21.3086 20.6768C21.2998 20.6871 21.2902 20.6968 21.2812 20.707C21.311 20.6727 21.3422 20.6395 21.3711 20.6045C21.3662 20.6104 21.3613 20.6162 21.3564 20.6221C22.1737 19.6399 22.6659 18.3774 22.666 17C22.666 15.8268 22.309 14.7364 21.6982 13.832C21.5964 13.6812 21.4876 13.5355 21.3721 13.3955C21.141 13.1155 20.8835 12.8581 20.6035 12.627C20.0437 12.1649 19.3934 11.8087 18.6836 11.5879C18.5062 11.5327 18.3251 11.486 18.1406 11.4482C17.7719 11.3728 17.3901 11.333 16.999 11.333C16.5101 11.333 16.0356 11.3952 15.583 11.5117L15.3145 11.5879L15.0508 11.6768C12.8813 12.4715 11.333 14.5554 11.333 17V22.666H5.66602C2.53663 22.6658 0.000139908 20.1294 0 17C4.10386e-07 13.8705 2.53654 11.3332 5.66602 11.333H11.333V5.66602C11.3332 2.53654 13.8705 7.97178e-07 17 0C20.1294 0.000187282 22.6659 2.53666 22.666 5.66602V11.333H28.333C31.4624 11.3332 33.9989 13.8706 33.999 17C33.9986 20.1292 31.4622 22.6668 28.333 22.667H22.667V28.333C22.6668 31.4623 20.1283 33.9998 16.999 34C13.8698 33.9996 11.3332 31.4622 11.333 28.333V22.667H17C17.0424 22.667 17.0847 22.664 17.127 22.6631C17.0847 22.664 17.0424 22.666 17 22.666H16.999C17.1522 22.666 17.3039 22.6584 17.4541 22.6465C17.8192 22.6175 18.1742 22.554 18.5166 22.459C18.5205 22.4579 18.5244 22.4571 18.5283 22.4561C18.5893 22.439 18.6499 22.4214 18.71 22.4023ZM20.1738 21.6924C20.1596 21.702 20.1452 21.7112 20.1309 21.7207C20.1451 21.7112 20.1596 21.702 20.1738 21.6924ZM20.4131 21.5205C20.3889 21.5388 20.3643 21.5563 20.3398 21.5742C20.3643 21.5563 20.3889 21.5388 20.4131 21.5205ZM20.8096 21.1943C20.7909 21.2113 20.7708 21.2265 20.752 21.2432C20.7925 21.2072 20.8326 21.1708 20.8721 21.1338C20.8509 21.1536 20.831 21.1748 20.8096 21.1943ZM21.0742 20.9336C21.0429 20.9661 21.0116 20.9986 20.9795 21.0303C21.0116 20.9985 21.0429 20.9661 21.0742 20.9336ZM21.2812 20.707C21.2439 20.7501 21.2066 20.793 21.168 20.835C21.2065 20.793 21.2439 20.7501 21.2812 20.707Z" fill="url(#paint0_linear_2624_25645)"/>
<defs>
<linearGradient id="paint0_linear_2624_25645" x1="16.9993" y1="11.3332" x2="16.9993" y2="22.8442" gradientUnits="userSpaceOnUse">
<stop stop-color="#81C6FD"/>
<stop offset="1" stop-color="#5053FA"/>
</linearGradient>
</defs>
</svg>
