<svg width="20" height="20" viewBox="0 0 20 20" fill="none" xmlns="http://www.w3.org/2000/svg">
<g clip-path="url(#clip0_17764_36460)">
<path d="M9.3335 4.66666H4.66683C4.31321 4.66666 3.97407 4.80713 3.72402 5.05718C3.47397 5.30723 3.3335 5.64637 3.3335 5.99999V15.3333C3.3335 15.6869 3.47397 16.0261 3.72402 16.2761C3.97407 16.5262 4.31321 16.6667 4.66683 16.6667H14.0002C14.3538 16.6667 14.6929 16.5262 14.943 16.2761C15.193 16.0261 15.3335 15.6869 15.3335 15.3333V10.6667" stroke="white" stroke-width="1.5" stroke-linecap="round" stroke-linejoin="round"/>
<path d="M14.3335 3.66665C14.5987 3.40144 14.9584 3.25244 15.3335 3.25244C15.7086 3.25244 16.0683 3.40144 16.3335 3.66665C16.5987 3.93187 16.7477 4.29158 16.7477 4.66665C16.7477 5.04173 16.5987 5.40144 16.3335 5.66665L10.0002 12L7.3335 12.6667L8.00016 9.99999L14.3335 3.66665Z" fill="white" stroke="white" stroke-width="1.5" stroke-linecap="round" stroke-linejoin="round"/>
</g>
<defs>
<clipPath id="clip0_17764_36460">
<rect width="16" height="16" fill="white" transform="translate(2 2)"/>
</clipPath>
</defs>
</svg>
