<svg width="20" height="20" viewBox="0 0 20 20" fill="none" xmlns="http://www.w3.org/2000/svg">
<g clip-path="url(#clip0_3026_19207)">
<path d="M9.33398 4.66675H4.66732C4.3137 4.66675 3.97456 4.80722 3.72451 5.05727C3.47446 5.30732 3.33398 5.64646 3.33398 6.00008V15.3334C3.33398 15.687 3.47446 16.0262 3.72451 16.2762C3.97456 16.5263 4.3137 16.6667 4.66732 16.6667H14.0007C14.3543 16.6667 14.6934 16.5263 14.9435 16.2762C15.1935 16.0262 15.334 15.687 15.334 15.3334V10.6667" stroke="#4D5562" stroke-width="1.5" stroke-linecap="round" stroke-linejoin="round"/>
<path d="M14.334 3.66665C14.5992 3.40144 14.9589 3.25244 15.334 3.25244C15.7091 3.25244 16.0688 3.40144 16.334 3.66665C16.5992 3.93187 16.7482 4.29158 16.7482 4.66665C16.7482 5.04173 16.5992 5.40144 16.334 5.66665L10.0007 12L7.33398 12.6667L8.00065 9.99999L14.334 3.66665Z" stroke="#4D5562" stroke-width="1.5" stroke-linecap="round" stroke-linejoin="round"/>
</g>
<defs>
<clipPath id="clip0_3026_19207">
<rect width="16" height="16" fill="white" transform="translate(2 2)"/>
</clipPath>
</defs>
</svg>
