<svg width="20" height="20" viewBox="0 0 20 20" fill="none" xmlns="http://www.w3.org/2000/svg">
<path d="M9.5776 18C8.56849 18 7.71744 17.2483 7.59289 16.2469L7.49254 15.44C7.32007 15.3733 7.15768 15.2933 7.00537 15.2C6.85254 15.1067 6.70315 15.0067 6.55721 14.9L5.81764 15.2123C4.88755 15.605 3.81058 15.243 3.30661 14.3682L2.87816 13.6244C2.37603 12.7527 2.59945 11.6438 3.39992 11.0346L4.04975 10.54C4.03648 10.4467 4.02985 10.3565 4.02985 10.2696V9.7296C4.02985 9.6432 4.03648 9.55333 4.04975 9.46L3.39992 8.96544C2.59945 8.35622 2.37603 7.24725 2.87816 6.3756L3.30661 5.63184C3.81058 4.757 4.88755 4.39495 5.81764 4.7877L6.55721 5.1C6.70315 4.99333 6.85572 4.89333 7.01493 4.8C7.17413 4.70667 7.33333 4.62667 7.49254 4.56L7.59289 3.75314C7.71744 2.75175 8.56849 2 9.5776 2H10.4224C11.4315 2 12.2826 2.75175 12.4071 3.75315L12.5075 4.56C12.6799 4.62667 12.8426 4.70667 12.9954 4.8C13.1477 4.89333 13.2969 4.99333 13.4428 5.1L14.1824 4.7877C15.1125 4.39495 16.1894 4.757 16.6934 5.63184L17.1218 6.3756C17.624 7.24725 17.4006 8.35622 16.6001 8.96544L15.9502 9.46C15.9635 9.55333 15.9701 9.6432 15.9701 9.7296V10.2696C15.9701 10.3565 15.9569 10.4467 15.9303 10.54L16.5802 11.0346C17.3807 11.6438 17.6041 12.7527 17.1019 13.6244L16.6762 14.3635C16.1711 15.2403 15.0906 15.6017 14.1596 15.2052L13.4428 14.9C13.2969 15.0067 13.1443 15.1067 12.9851 15.2C12.8259 15.2933 12.6667 15.3733 12.5075 15.44L12.4071 16.2469C12.2826 17.2483 11.4315 18 10.4224 18H9.5776ZM10.0398 12.8C10.8093 12.8 11.466 12.5267 12.01 11.98C12.5539 11.4333 12.8259 10.7733 12.8259 10C12.8259 9.22667 12.5539 8.56667 12.01 8.02C11.466 7.47333 10.8093 7.2 10.0398 7.2C9.25705 7.2 8.59688 7.47333 8.0593 8.02C7.52226 8.56667 7.25373 9.22667 7.25373 10C7.25373 10.7733 7.52226 11.4333 8.0593 11.98C8.59688 12.5267 9.25705 12.8 10.0398 12.8ZM10.0398 11.2C9.70813 11.2 9.42634 11.0832 9.19443 10.8496C8.96199 10.6165 8.84577 10.3333 8.84577 10C8.84577 9.66667 8.96199 9.38347 9.19443 9.1504C9.42634 8.9168 9.70813 8.8 10.0398 8.8C10.3715 8.8 10.6535 8.9168 10.886 9.1504C11.1179 9.38347 11.2338 9.66667 11.2338 10C11.2338 10.3333 11.1179 10.6165 10.886 10.8496C10.6535 11.0832 10.3715 11.2 10.0398 11.2ZM9.20398 16.4H10.7761L11.0547 14.28C11.466 14.1733 11.8476 14.0165 12.1994 13.8096C12.5507 13.6032 12.8723 13.3533 13.1642 13.06L15.1343 13.88L15.9104 12.52L14.199 11.22C14.2653 11.0333 14.3118 10.8365 14.3383 10.6296C14.3648 10.4232 14.3781 10.2133 14.3781 10C14.3781 9.78667 14.3648 9.57653 14.3383 9.3696C14.3118 9.1632 14.2653 8.96667 14.199 8.78L15.9104 7.48L15.1343 6.12L13.1642 6.96C12.8723 6.65333 12.5507 6.39653 12.1994 6.1896C11.8476 5.9832 11.466 5.82667 11.0547 5.72L10.796 3.6H9.22388L8.94527 5.72C8.534 5.82667 8.1527 5.9832 7.80139 6.1896C7.44955 6.39653 7.1277 6.64667 6.83582 6.94L4.86567 6.12L4.08955 7.48L5.801 8.76C5.73466 8.96 5.68823 9.16 5.66169 9.36C5.63516 9.56 5.62189 9.77333 5.62189 10C5.62189 10.2133 5.63516 10.42 5.66169 10.62C5.68823 10.82 5.73466 11.02 5.801 11.22L4.08955 12.52L4.86567 13.88L6.83582 13.04C7.1277 13.3467 7.44955 13.6032 7.80139 13.8096C8.1527 14.0165 8.534 14.1733 8.94527 14.28L9.20398 16.4Z" fill="#6C727F"/>
</svg>
