<svg width="36" height="36" viewBox="0 0 36 36" fill="none" xmlns="http://www.w3.org/2000/svg">
<path d="M17.0303 28C16.0212 28 15.1702 27.2483 15.0456 26.2469L14.8657 24.8C14.6501 24.7167 14.4471 24.6167 14.2567 24.5C14.0657 24.3833 13.8789 24.2583 13.6965 24.125L12.3649 24.6873C11.4348 25.08 10.3578 24.718 9.85388 23.8432L8.87816 22.1494C8.37603 21.2777 8.59945 20.1688 9.39993 19.5596L10.5622 18.675C10.5456 18.5583 10.5373 18.4457 10.5373 18.337V17.662C10.5373 17.554 10.5456 17.4417 10.5622 17.325L9.39993 16.4404C8.59945 15.8312 8.37603 14.7223 8.87816 13.8506L9.85388 12.1568C10.3578 11.282 11.4348 10.92 12.3649 11.3127L13.6965 11.875C13.8789 11.7417 14.0697 11.6167 14.2687 11.5C14.4677 11.3833 14.6667 11.2833 14.8657 11.2L15.0456 9.75315C15.1702 8.75175 16.0212 8 17.0303 8H18.9697C19.9788 8 20.8298 8.75175 20.9544 9.75315L21.1343 11.2C21.3499 11.2833 21.5532 11.3833 21.7443 11.5C21.9347 11.6167 22.1211 11.7417 22.3035 11.875L23.6351 11.3127C24.5652 10.92 25.6422 11.282 26.1461 12.1568L27.1218 13.8506C27.624 14.7223 27.4006 15.8312 26.6001 16.4404L25.4378 17.325C25.4544 17.4417 25.4627 17.554 25.4627 17.662V18.337C25.4627 18.4457 25.4461 18.5583 25.4129 18.675L26.5752 19.5596C27.3757 20.1688 27.5991 21.2777 27.097 22.1494L26.1239 23.8385C25.6188 24.7153 24.5384 25.0767 23.6073 24.6802L22.3035 24.125C22.1211 24.2583 21.9304 24.3833 21.7313 24.5C21.5323 24.6167 21.3333 24.7167 21.1343 24.8L20.9544 26.2469C20.8298 27.2483 19.9788 28 18.9697 28H17.0303ZM18.0498 21.5C19.0116 21.5 19.8325 21.1583 20.5124 20.475C21.1924 19.7917 21.5323 18.9667 21.5323 18C21.5323 17.0333 21.1924 16.2083 20.5124 15.525C19.8325 14.8417 19.0116 14.5 18.0498 14.5C17.0713 14.5 16.2461 14.8417 15.5741 15.525C14.9028 16.2083 14.5672 17.0333 14.5672 18C14.5672 18.9667 14.9028 19.7917 15.5741 20.475C16.2461 21.1583 17.0713 21.5 18.0498 21.5ZM18.0498 19.5C17.6352 19.5 17.2829 19.354 16.993 19.062C16.7025 18.7707 16.5572 18.4167 16.5572 18C16.5572 17.5833 16.7025 17.2293 16.993 16.938C17.2829 16.646 17.6352 16.5 18.0498 16.5C18.4643 16.5 18.8169 16.646 19.1075 16.938C19.3973 17.2293 19.5423 17.5833 19.5423 18C19.5423 18.4167 19.3973 18.7707 19.1075 19.062C18.8169 19.354 18.4643 19.5 18.0498 19.5ZM17.005 26H18.9702L19.3184 23.35C19.8325 23.2167 20.3095 23.0207 20.7493 22.762C21.1884 22.504 21.5904 22.1917 21.9552 21.825L24.4179 22.85L25.3881 21.15L23.2488 19.525C23.3317 19.2917 23.3897 19.0457 23.4229 18.787C23.4561 18.529 23.4726 18.2667 23.4726 18C23.4726 17.7333 23.4561 17.4707 23.4229 17.212C23.3897 16.954 23.3317 16.7083 23.2488 16.475L25.3881 14.85L24.4179 13.15L21.9552 14.2C21.5904 13.8167 21.1884 13.4957 20.7493 13.237C20.3095 12.979 19.8325 12.7833 19.3184 12.65L18.995 10H17.0299L16.6816 12.65C16.1675 12.7833 15.6909 12.979 15.2517 13.237C14.8119 13.4957 14.4096 13.8083 14.0448 14.175L11.5821 13.15L10.6119 14.85L12.7512 16.45C12.6683 16.7 12.6103 16.95 12.5771 17.2C12.5439 17.45 12.5274 17.7167 12.5274 18C12.5274 18.2667 12.5439 18.525 12.5771 18.775C12.6103 19.025 12.6683 19.275 12.7512 19.525L10.6119 21.15L11.5821 22.85L14.0448 21.8C14.4096 22.1833 14.8119 22.504 15.2517 22.762C15.6909 23.0207 16.1675 23.2167 16.6816 23.35L17.005 26Z" fill="#4D5562"/>
</svg>
