<svg width="20" height="20" viewBox="0 0 20 20" fill="none" xmlns="http://www.w3.org/2000/svg">
<path d="M9.14339 16C8.69489 16 8.31665 15.6659 8.2613 15.2208L8.1194 14.08C7.99005 14.03 7.86826 13.97 7.75403 13.9C7.6394 13.83 7.52736 13.755 7.41791 13.675L6.36561 14.1194C5.95223 14.2939 5.47358 14.133 5.24959 13.7442L4.39029 12.2525C4.16712 11.8651 4.26642 11.3722 4.62219 11.1015L5.53731 10.405C5.52736 10.335 5.52239 10.2674 5.52239 10.2022V9.7972C5.52239 9.7324 5.52736 9.665 5.53731 9.595L4.62219 8.89853C4.26642 8.62777 4.16712 8.13489 4.39029 7.74749L5.24959 6.25582C5.47358 5.867 5.95223 5.70609 6.36561 5.88065L7.41791 6.325C7.52736 6.245 7.64179 6.17 7.76119 6.1C7.8806 6.03 8 5.97 8.1194 5.92L8.2613 4.77918C8.31665 4.33411 8.6949 4 9.14339 4H10.8566C11.3051 4 11.6833 4.33411 11.7387 4.77918L11.8806 5.92C12.01 5.97 12.1319 6.03 12.2466 6.1C12.3608 6.17 12.4726 6.245 12.5821 6.325L13.6344 5.88065C14.0478 5.70609 14.5264 5.867 14.7504 6.25582L15.6097 7.74749C15.8329 8.13489 15.7336 8.62777 15.3778 8.89853L14.4627 9.595C14.4726 9.665 14.4776 9.7324 14.4776 9.7972V10.2022C14.4776 10.2674 14.4677 10.335 14.4478 10.405L15.3629 11.1015C15.7187 11.3722 15.818 11.8651 15.5948 12.2525L14.7367 13.7421C14.5122 14.1318 14.032 14.2924 13.6182 14.1162L12.5821 13.675C12.4726 13.755 12.3582 13.83 12.2388 13.9C12.1194 13.97 12 14.03 11.8806 14.08L11.7387 15.2208C11.6833 15.6659 11.3051 16 10.8566 16H9.14339ZM10.0299 12.1C10.607 12.1 11.0995 11.895 11.5075 11.485C11.9154 11.075 12.1194 10.58 12.1194 10C12.1194 9.42 11.9154 8.925 11.5075 8.515C11.0995 8.105 10.607 7.9 10.0299 7.9C9.44279 7.9 8.94766 8.105 8.54448 8.515C8.14169 8.925 7.9403 9.42 7.9403 10C7.9403 10.58 8.14169 11.075 8.54448 11.485C8.94766 11.895 9.44279 12.1 10.0299 12.1ZM10.0299 10.9C9.7811 10.9 9.56975 10.8124 9.39582 10.6372C9.22149 10.4624 9.13433 10.25 9.13433 10C9.13433 9.75 9.22149 9.5376 9.39582 9.3628C9.56975 9.1876 9.7811 9.1 10.0299 9.1C10.2786 9.1 10.4901 9.1876 10.6645 9.3628C10.8384 9.5376 10.9254 9.75 10.9254 10C10.9254 10.25 10.8384 10.4624 10.6645 10.6372C10.4901 10.8124 10.2786 10.9 10.0299 10.9ZM9.40299 14.8H10.5821L10.791 13.21C11.0995 13.13 11.3857 13.0124 11.6496 12.8572C11.913 12.7024 12.1542 12.515 12.3731 12.295L13.8507 12.91L14.4328 11.89L13.1493 10.915C13.199 10.775 13.2338 10.6274 13.2537 10.4722C13.2736 10.3174 13.2836 10.16 13.2836 10C13.2836 9.84 13.2736 9.6824 13.2537 9.5272C13.2338 9.3724 13.199 9.225 13.1493 9.085L14.4328 8.11L13.8507 7.09L12.3731 7.72C12.1542 7.49 11.913 7.2974 11.6496 7.1422C11.3857 6.9874 11.0995 6.87 10.791 6.79L10.597 5.2H9.41791L9.20896 6.79C8.9005 6.87 8.61453 6.9874 8.35105 7.1422C8.08716 7.2974 7.84577 7.485 7.62687 7.705L6.14925 7.09L5.56716 8.11L6.85075 9.07C6.80099 9.22 6.76617 9.37 6.74627 9.52C6.72637 9.67 6.71642 9.83 6.71642 10C6.71642 10.16 6.72637 10.315 6.74627 10.465C6.76617 10.615 6.80099 10.765 6.85075 10.915L5.56716 11.89L6.14925 12.91L7.62687 12.28C7.84577 12.51 8.08716 12.7024 8.35105 12.8572C8.61453 13.0124 8.9005 13.13 9.20896 13.21L9.40299 14.8Z" fill="#394150"/>
</svg>
