<svg width="24" height="24" viewBox="0 0 24 24" fill="none" xmlns="http://www.w3.org/2000/svg">
<g clip-path="url(#clip0_3160_6420)">
<path d="M17.4453 17.4449C15.8784 18.6393 13.9703 19.301 12.0003 19.3332C5.58366 19.3332 1.91699 11.9999 1.91699 11.9999C3.05722 9.87493 4.6387 8.01842 6.55533 6.55486M10.0753 4.88653C10.7063 4.73883 11.3523 4.665 12.0003 4.66653C18.417 4.66653 22.0837 11.9999 22.0837 11.9999C21.5272 13.0408 20.8636 14.0209 20.1037 14.924M13.9437 13.9432C13.6919 14.2134 13.3883 14.4301 13.051 14.5804C12.7136 14.7307 12.3495 14.8115 11.9802 14.818C11.611 14.8245 11.2442 14.7566 10.9018 14.6183C10.5594 14.48 10.2483 14.2741 9.98719 14.013C9.72605 13.7519 9.52019 13.4408 9.38188 13.0984C9.24357 12.756 9.17564 12.3892 9.18216 12.0199C9.18867 11.6507 9.26949 11.2866 9.4198 10.9492C9.5701 10.6119 9.78681 10.3083 10.057 10.0565" stroke="#2E2F33" stroke-opacity="0.88" stroke-width="2" stroke-linecap="round" stroke-linejoin="round"/>
<path d="M1.91699 1.9165L22.0837 22.0832" stroke="#2E2F33" stroke-opacity="0.88" stroke-width="2" stroke-linecap="round" stroke-linejoin="round"/>
</g>
<defs>
<clipPath id="clip0_3160_6420">
<rect width="22" height="22" fill="white" transform="translate(1 1)"/>
</clipPath>
</defs>
</svg>
