<svg width="20" height="20" viewBox="0 0 20 20" fill="none" xmlns="http://www.w3.org/2000/svg">
<path d="M13 8.26664L7 4.80664" stroke="#4D5562" stroke-width="1.5" stroke-linecap="round" stroke-linejoin="round"/>
<path d="M16 12.6667V7.33335C15.9998 7.09953 15.938 6.86989 15.821 6.66746C15.704 6.46503 15.5358 6.29692 15.3333 6.18002L10.6667 3.51335C10.464 3.39633 10.234 3.33472 10 3.33472C9.76595 3.33472 9.53603 3.39633 9.33333 3.51335L4.66667 6.18002C4.46418 6.29692 4.29599 6.46503 4.17897 6.66746C4.06196 6.86989 4.00024 7.09953 4 7.33335V12.6667C4.00024 12.9005 4.06196 13.1301 4.17897 13.3326C4.29599 13.535 4.46418 13.7031 4.66667 13.82L9.33333 16.4867C9.53603 16.6037 9.76595 16.6653 10 16.6653C10.234 16.6653 10.464 16.6037 10.6667 16.4867L15.3333 13.82C15.5358 13.7031 15.704 13.535 15.821 13.3326C15.938 13.1301 15.9998 12.9005 16 12.6667Z" stroke="#4D5562" stroke-width="1.5" stroke-linecap="round" stroke-linejoin="round"/>
<path d="M4.19336 6.66675L10 10.0001L15.8067 6.66675" stroke="#4D5562" stroke-width="1.5" stroke-linecap="round" stroke-linejoin="round"/>
<path d="M10 16.6667V10" stroke="#4D5562" stroke-width="1.5" stroke-linecap="round" stroke-linejoin="round"/>
</svg>
