<svg width="107" height="15" viewBox="0 0 107 15" fill="none" xmlns="http://www.w3.org/2000/svg">
<path d="M97.458 0H99.6872V8.21584H100.417L103.889 4.28314H106.829L102.35 9.15034L106.848 14.0175H103.909L100.417 10.0654H99.6872V14.0175H97.458V0Z" fill="white"/>
<path d="M92.2475 14.3331C91.3005 14.3331 90.4654 14.1255 89.742 13.7101C89.0187 13.2818 88.4532 12.6978 88.0454 11.9579C87.6509 11.2181 87.4536 10.355 87.4536 9.3686C87.4536 8.3692 87.6575 7.4931 88.0652 6.7403C88.4729 5.98751 89.0384 5.39696 89.7618 4.96864C90.4983 4.54033 91.3466 4.32617 92.3067 4.32617C93.3193 4.32617 94.2202 4.56629 95.0094 5.04652C95.7985 5.51377 96.364 6.14975 96.7059 6.95446L94.674 7.6164C94.503 7.21405 94.2071 6.89605 93.7862 6.66243C93.3785 6.41582 92.9116 6.29252 92.3856 6.29252C91.8595 6.29252 91.4057 6.42231 91.0243 6.6819C90.6429 6.9285 90.347 7.27894 90.1366 7.73321C89.9393 8.18749 89.8407 8.72612 89.8407 9.34913C89.8407 10.2836 90.0708 11.0234 90.5311 11.5686C90.9915 12.1007 91.6227 12.3668 92.425 12.3668C92.9379 12.3668 93.3983 12.2565 93.806 12.0358C94.2137 11.8022 94.5293 11.4777 94.7529 11.0624L96.7454 11.7438C96.364 12.5355 95.7656 13.165 94.9502 13.6323C94.1479 14.0995 93.247 14.3331 92.2475 14.3331Z" fill="white"/>
<path d="M81.6522 14.3331C80.7052 14.3331 79.8569 14.132 79.1073 13.7296C78.3576 13.3143 77.7724 12.7367 77.3515 11.9969C76.9306 11.2441 76.7202 10.3615 76.7202 9.34913C76.7202 8.32377 76.9372 7.43469 77.3712 6.6819C77.8052 5.9291 78.4037 5.35153 79.1665 4.94917C79.9293 4.53384 80.7776 4.32617 81.7113 4.32617C82.6583 4.32617 83.5066 4.53384 84.2562 4.94917C85.019 5.35153 85.624 5.9291 86.0712 6.6819C86.5183 7.42171 86.7419 8.29781 86.7419 9.31019C86.7419 10.3355 86.5118 11.2246 86.0515 11.9774C85.6043 12.7302 84.9927 13.3143 84.2168 13.7296C83.454 14.132 82.5991 14.3331 81.6522 14.3331ZM81.6324 12.3668C82.0928 12.3668 82.5268 12.2565 82.9345 12.0358C83.3553 11.8152 83.6973 11.4842 83.9603 11.0429C84.2233 10.5886 84.3549 10.0111 84.3549 9.31019C84.3549 8.63527 84.2299 8.07716 83.98 7.63587C83.7302 7.1816 83.4014 6.84414 82.9937 6.62349C82.5859 6.40284 82.1454 6.29252 81.6719 6.29252C81.2116 6.29252 80.7841 6.40284 80.3896 6.62349C80.0082 6.84414 79.6991 7.1816 79.4624 7.63587C79.2256 8.07716 79.1073 8.64825 79.1073 9.34913C79.1073 10.024 79.2191 10.5886 79.4427 11.0429C79.6794 11.4842 79.9885 11.8152 80.3699 12.0358C80.7513 12.2565 81.1721 12.3668 81.6324 12.3668Z" fill="white"/>
<path d="M71.4307 4.3477V1.62207H73.6994V4.3477H76.0076V6.27512H73.6994V10.5972C73.6994 11.1813 73.8112 11.5901 74.0348 11.8237C74.2584 12.0444 74.5477 12.1677 74.9028 12.1936C75.2711 12.2066 75.6393 12.1871 76.0076 12.1352V14.0042C75.4421 14.121 74.8831 14.1535 74.3307 14.1016C73.7915 14.0626 73.3049 13.9199 72.8709 13.6733C72.4369 13.4137 72.0883 13.0373 71.8253 12.5441C71.5623 12.0509 71.4307 11.4019 71.4307 10.5972V6.27512H70.0498V4.3477H71.4307Z" fill="white"/>
<path d="M66.7171 3.96411C66.6786 3.57752 66.5469 3.24163 66.3222 2.95645C66.1038 2.67126 65.802 2.45895 65.4167 2.31953C65.0378 2.17376 64.5947 2.10088 64.0874 2.10088C63.5736 2.10088 63.1241 2.17693 62.7388 2.32903C62.3599 2.48113 62.0645 2.69344 61.8526 2.96595C61.6471 3.23846 61.5443 3.55217 61.5443 3.90707C61.5443 4.42675 61.7627 4.82918 62.1994 5.11437C62.6425 5.39955 63.2204 5.63087 63.9332 5.80832L65.2337 6.13154C66.4731 6.41672 67.4652 6.86985 68.2102 7.49093C68.9551 8.11201 69.3308 8.97707 69.3372 10.0861C69.3372 10.891 69.1253 11.6008 68.7014 12.2155C68.284 12.8303 67.6772 13.3088 66.8809 13.651C66.091 13.9932 65.1438 14.1643 64.0392 14.1643C62.9603 14.1643 62.0195 13.9995 61.2168 13.67C60.4205 13.3341 59.8008 12.8461 59.3577 12.206C58.9146 11.5659 58.6738 10.7959 58.6353 9.89601H61.1012C61.1398 10.365 61.2907 10.7611 61.554 11.0843C61.8173 11.4012 62.1608 11.642 62.5847 11.8068C63.0085 11.9652 63.4869 12.0444 64.0199 12.0444C64.5722 12.0444 65.0603 11.962 65.4841 11.7973C65.908 11.6325 66.2355 11.4012 66.4666 11.1033C66.7043 10.7991 66.8231 10.4537 66.8231 10.0671C66.8231 9.7249 66.7235 9.43654 66.5244 9.20206C66.3254 8.96123 66.0428 8.7616 65.6768 8.60316C65.3171 8.44472 64.8612 8.29579 64.3089 8.15637L62.7195 7.7571C61.5251 7.44657 60.6067 6.99027 59.9646 6.3882C59.3288 5.78614 59.0109 5.00663 59.0109 4.04966C59.0109 3.25114 59.2325 2.54768 59.6756 1.93928C60.1187 1.32454 60.7288 0.849226 61.5058 0.513338C62.2828 0.171113 63.1562 0 64.1259 0C65.0956 0 65.9561 0.167944 66.7075 0.503832C67.4652 0.839719 68.056 1.30869 68.4799 1.91076C68.9037 2.50648 69.1253 3.19093 69.1445 3.96411H66.7171Z" fill="white"/>
<path d="M51.2676 4.41517H53.2798L53.4574 5.62224C53.7204 5.29776 54.0295 5.03168 54.3846 4.82402C54.7397 4.60337 55.1211 4.45411 55.5288 4.37623C55.9496 4.29836 56.3705 4.31134 56.7914 4.41517V6.43993C56.4494 6.32312 56.0812 6.29716 55.6866 6.36205C55.3052 6.41397 54.9501 6.55674 54.6213 6.79037C54.2925 7.01101 54.0229 7.329 53.8125 7.74434C53.602 8.14669 53.4968 8.64639 53.4968 9.24344V14.1496H51.2676V4.41517Z" fill="white"/>
<path d="M45.0652 14.3331C44.1183 14.3331 43.27 14.132 42.5204 13.7296C41.7707 13.3143 41.1854 12.7367 40.7646 11.9969C40.3437 11.2441 40.1333 10.3615 40.1333 9.34913C40.1333 8.32377 40.3503 7.43469 40.7843 6.6819C41.2183 5.9291 41.8167 5.35153 42.5795 4.94917C43.3424 4.53384 44.1907 4.32617 45.1244 4.32617C46.0714 4.32617 46.9197 4.53384 47.6693 4.94917C48.4321 5.35153 49.0371 5.9291 49.4843 6.6819C49.9314 7.42171 50.155 8.29781 50.155 9.31019C50.155 10.3355 49.9249 11.2246 49.4645 11.9774C49.0174 12.7302 48.4058 13.3143 47.6299 13.7296C46.8671 14.132 46.0122 14.3331 45.0652 14.3331ZM45.0455 12.3668C45.5058 12.3668 45.9398 12.2565 46.3476 12.0358C46.7684 11.8152 47.1104 11.4842 47.3734 11.0429C47.6364 10.5886 47.768 10.0111 47.768 9.31019C47.768 8.63527 47.643 8.07716 47.3931 7.63587C47.1432 7.1816 46.8144 6.84414 46.4067 6.62349C45.999 6.40284 45.5584 6.29252 45.085 6.29252C44.6247 6.29252 44.1972 6.40284 43.8027 6.62349C43.4213 6.84414 43.1122 7.1816 42.8755 7.63587C42.6387 8.07716 42.5204 8.64825 42.5204 9.34913C42.5204 10.024 42.6322 10.5886 42.8557 11.0429C43.0925 11.4842 43.4015 11.8152 43.7829 12.0358C44.1643 12.2565 44.5852 12.3668 45.0455 12.3668Z" fill="white"/>
<path d="M34.9918 4.3477V1.62207H37.2605V4.3477H39.5686V6.27512H37.2605V10.5972C37.2605 11.1813 37.3723 11.5901 37.5959 11.8237C37.8194 12.0444 38.1088 12.1677 38.4639 12.1936C38.8321 12.2066 39.2004 12.1871 39.5686 12.1352V14.0042C39.0031 14.121 38.4442 14.1535 37.8918 14.1016C37.3525 14.0626 36.8659 13.9199 36.4319 13.6733C35.9979 13.4137 35.6494 13.0373 35.3863 12.5441C35.1233 12.0509 34.9918 11.4019 34.9918 10.5972V6.27512H33.6108V4.3477H34.9918Z" fill="white"/>
<path d="M28.5482 14.3331C27.6013 14.3331 26.7662 14.1255 26.0428 13.7101C25.3195 13.2818 24.7539 12.6978 24.3462 11.9579C23.9517 11.2181 23.7544 10.355 23.7544 9.3686C23.7544 8.3692 23.9582 7.4931 24.366 6.7403C24.7737 5.98751 25.3392 5.39696 26.0625 4.96864C26.7991 4.54033 27.6473 4.32617 28.6074 4.32617C29.6201 4.32617 30.521 4.56629 31.3101 5.04652C32.0993 5.51377 32.6648 6.14975 33.0067 6.95446L30.9748 7.6164C30.8038 7.21405 30.5079 6.89605 30.087 6.66243C29.6793 6.41582 29.2124 6.29252 28.6863 6.29252C28.1603 6.29252 27.7065 6.42231 27.3251 6.6819C26.9437 6.9285 26.6478 7.27894 26.4374 7.73321C26.2401 8.18749 26.1415 8.72612 26.1415 9.34913C26.1415 10.2836 26.3716 11.0234 26.8319 11.5686C27.2922 12.1007 27.9235 12.3668 28.7258 12.3668C29.2387 12.3668 29.699 12.2565 30.1067 12.0358C30.5145 11.8022 30.8301 11.4777 31.0537 11.0624L33.0462 11.7438C32.6648 12.5355 32.0664 13.165 31.251 13.6323C30.4487 14.0995 29.5478 14.3331 28.5482 14.3331Z" fill="white"/>
<path d="M18.1004 14.3331C17.1535 14.3331 16.3052 14.132 15.5555 13.7296C14.8059 13.3143 14.2206 12.7367 13.7997 11.9969C13.3789 11.2441 13.1685 10.3615 13.1685 9.34913C13.1685 8.32377 13.3855 7.43469 13.8195 6.6819C14.2535 5.9291 14.8519 5.35153 15.6147 4.94917C16.3775 4.53384 17.2258 4.32617 18.1596 4.32617C19.1065 4.32617 19.9548 4.53384 20.7045 4.94917C21.4673 5.35153 22.0723 5.9291 22.5194 6.6819C22.9666 7.42171 23.1902 8.29781 23.1902 9.31019C23.1902 10.3355 22.96 11.2246 22.4997 11.9774C22.0525 12.7302 21.441 13.3143 20.665 13.7296C19.9022 14.132 19.0473 14.3331 18.1004 14.3331ZM18.0807 12.3668C18.541 12.3668 18.975 12.2565 19.3827 12.0358C19.8036 11.8152 20.1455 11.4842 20.4086 11.0429C20.6716 10.5886 20.8031 10.0111 20.8031 9.31019C20.8031 8.63527 20.6782 8.07716 20.4283 7.63587C20.1784 7.1816 19.8496 6.84414 19.4419 6.62349C19.0342 6.40284 18.5936 6.29252 18.1201 6.29252C17.6598 6.29252 17.2324 6.40284 16.8378 6.62349C16.4564 6.84414 16.1474 7.1816 15.9106 7.63587C15.6739 8.07716 15.5555 8.64825 15.5555 9.34913C15.5555 10.024 15.6673 10.5886 15.8909 11.0429C16.1276 11.4842 16.4367 11.8152 16.8181 12.0358C17.1995 12.2565 17.6204 12.3668 18.0807 12.3668Z" fill="white"/>
<path d="M5.05595 0C6.57948 0 7.89402 0.289875 8.99959 0.869624C10.1186 1.44937 10.9815 2.27855 11.5882 3.35715C12.2084 4.42227 12.5185 5.68289 12.5185 7.139C12.5185 8.58163 12.2084 9.82877 11.5882 10.8804C10.9815 11.932 10.1186 12.741 8.99959 13.3073C7.89402 13.8735 6.57948 14.1567 5.05595 14.1567H0V0H5.05595ZM5.05595 12.1545C6.67385 12.1545 7.91425 11.7163 8.77713 10.84C9.65349 9.95011 10.0917 8.71646 10.0917 7.139C10.0917 5.54806 9.65349 4.29419 8.77713 3.37737C7.91425 2.46056 6.67385 2.00216 5.05595 2.00216H2.40663V12.1545H5.05595Z" fill="white"/>
</svg>
