<svg width="116" height="28" viewBox="0 0 116 28" fill="none" xmlns="http://www.w3.org/2000/svg">
<path d="M7.44 19.46H10.14C10.8733 19.46 11.56 19.3667 12.2 19.18C12.8533 18.9933 13.42 18.6933 13.9 18.28C14.3933 17.8533 14.78 17.3 15.06 16.62C15.34 15.94 15.48 15.1133 15.48 14.14C15.48 13.2333 15.3533 12.4533 15.1 11.8C14.8467 11.1333 14.4867 10.5867 14.02 10.16C13.5667 9.73333 13.0067 9.42 12.34 9.22C11.6867 9.00667 10.9533 8.9 10.14 8.9H7.44V19.46ZM5.76 7.36H10.14C11.22 7.36 12.1933 7.49333 13.06 7.76C13.94 8.02667 14.6933 8.44 15.32 9C15.9467 9.56 16.4267 10.2667 16.76 11.12C17.1067 11.9733 17.28 12.98 17.28 14.14C17.28 15.3133 17.0933 16.3333 16.72 17.2C16.3467 18.0533 15.84 18.7667 15.2 19.34C14.56 19.9 13.8067 20.32 12.94 20.6C12.0733 20.8667 11.14 21 10.14 21H5.76V7.36ZM20.4769 16.02C20.4769 17.3133 20.7635 18.28 21.3369 18.92C21.9235 19.5467 22.7102 19.86 23.6969 19.86C24.6702 19.86 25.4302 19.5467 25.9769 18.92C26.5235 18.2933 26.7969 17.3533 26.7969 16.1C26.7969 14.7667 26.5035 13.7733 25.9169 13.12C25.3435 12.4667 24.5569 12.14 23.5569 12.14C22.5569 12.14 21.7902 12.4667 21.2569 13.12C20.7369 13.76 20.4769 14.7267 20.4769 16.02ZM18.7769 16C18.7769 14.9867 18.9369 14.1467 19.2569 13.48C19.5769 12.8 19.9835 12.26 20.4769 11.86C20.9702 11.4467 21.4969 11.16 22.0569 11C22.6302 10.8267 23.1702 10.74 23.6769 10.74C24.1569 10.74 24.6769 10.82 25.2369 10.98C25.8102 11.1267 26.3369 11.4 26.8169 11.8C27.2969 12.1867 27.6969 12.7133 28.0169 13.38C28.3369 14.0333 28.4969 14.8667 28.4969 15.88C28.4969 16.9333 28.3302 17.8067 27.9969 18.5C27.6769 19.1933 27.2702 19.7467 26.7769 20.16C26.2835 20.56 25.7502 20.84 25.1769 21C24.6035 21.1733 24.0702 21.26 23.5769 21.26C23.0702 21.26 22.5369 21.18 21.9769 21.02C21.4169 20.86 20.8969 20.5867 20.4169 20.2C19.9502 19.8 19.5569 19.26 19.2369 18.58C18.9302 17.9 18.7769 17.04 18.7769 16ZM36.6613 12.4C36.4346 12.3467 36.1213 12.2933 35.7213 12.24C35.3213 12.1733 34.9146 12.14 34.5013 12.14C33.9013 12.14 33.4079 12.26 33.0213 12.5C32.6479 12.74 32.3546 13.0533 32.1413 13.44C31.9279 13.8133 31.7813 14.2333 31.7013 14.7C31.6213 15.1533 31.5813 15.6 31.5813 16.04C31.5813 16.72 31.6679 17.3067 31.8413 17.8C32.0146 18.28 32.2413 18.6733 32.5213 18.98C32.8146 19.2867 33.1479 19.5133 33.5213 19.66C33.8946 19.7933 34.2879 19.86 34.7013 19.86C34.9813 19.86 35.2479 19.8467 35.5013 19.82C35.7679 19.78 36.0079 19.74 36.2213 19.7C36.4479 19.6467 36.6613 19.5867 36.8613 19.52L37.1813 20.86C36.9013 20.94 36.6413 21.0067 36.4013 21.06C36.1613 21.1133 35.8746 21.16 35.5413 21.2C35.2213 21.24 34.8746 21.26 34.5013 21.26C33.7679 21.26 33.1146 21.1667 32.5413 20.98C31.9679 20.7933 31.4813 20.4933 31.0813 20.08C30.6946 19.6667 30.3946 19.1267 30.1813 18.46C29.9813 17.7933 29.8813 16.98 29.8813 16.02C29.8813 15.0867 30.0079 14.2867 30.2613 13.62C30.5279 12.94 30.8746 12.3933 31.3013 11.98C31.7279 11.5533 32.2146 11.24 32.7613 11.04C33.3213 10.84 33.9013 10.74 34.5013 10.74C34.8213 10.74 35.1279 10.76 35.4213 10.8C35.7279 10.8267 35.9946 10.86 36.2213 10.9C36.4879 10.9533 36.7413 11.0067 36.9813 11.06L36.6613 12.4ZM41.0917 7.94V10.94H43.9917V12.24H41.0917V17.58C41.0917 18.02 41.0984 18.3867 41.1117 18.68C41.1384 18.9733 41.1851 19.2067 41.2517 19.38C41.3184 19.5533 41.4117 19.68 41.5317 19.76C41.6517 19.8267 41.8051 19.86 41.9917 19.86C42.4984 19.8467 43.0851 19.66 43.7517 19.3L44.2317 20.52C43.7917 20.8133 43.3784 21.0067 42.9917 21.1C42.6184 21.2067 42.2451 21.26 41.8717 21.26C40.9917 21.26 40.3717 21.0133 40.0117 20.52C39.6651 20.0133 39.4917 19.18 39.4917 18.02V12.24H37.6517V10.94H39.4917V8.14L41.0917 7.94ZM46.6988 16.02C46.6988 17.3133 46.9854 18.28 47.5588 18.92C48.1454 19.5467 48.9321 19.86 49.9188 19.86C50.8921 19.86 51.6521 19.5467 52.1988 18.92C52.7454 18.2933 53.0188 17.3533 53.0188 16.1C53.0188 14.7667 52.7254 13.7733 52.1388 13.12C51.5654 12.4667 50.7788 12.14 49.7788 12.14C48.7788 12.14 48.0121 12.4667 47.4788 13.12C46.9588 13.76 46.6988 14.7267 46.6988 16.02ZM44.9988 16C44.9988 14.9867 45.1588 14.1467 45.4788 13.48C45.7988 12.8 46.2054 12.26 46.6988 11.86C47.1921 11.4467 47.7188 11.16 48.2788 11C48.8521 10.8267 49.3921 10.74 49.8988 10.74C50.3788 10.74 50.8988 10.82 51.4588 10.98C52.0321 11.1267 52.5588 11.4 53.0388 11.8C53.5188 12.1867 53.9188 12.7133 54.2388 13.38C54.5588 14.0333 54.7188 14.8667 54.7188 15.88C54.7188 16.9333 54.5521 17.8067 54.2188 18.5C53.8988 19.1933 53.4921 19.7467 52.9988 20.16C52.5054 20.56 51.9721 20.84 51.3988 21C50.8254 21.1733 50.2921 21.26 49.7988 21.26C49.2921 21.26 48.7588 21.18 48.1988 21.02C47.6388 20.86 47.1188 20.5867 46.6388 20.2C46.1721 19.8 45.7788 19.26 45.4588 18.58C45.1521 17.9 44.9988 17.04 44.9988 16ZM56.6631 12.56C56.6631 12.2533 56.6298 11.7733 56.5631 11.12L58.0431 10.92L58.2031 12.38H58.2231C58.4631 12.0733 58.6965 11.8067 58.9231 11.58C59.1498 11.3533 59.3831 11.16 59.6231 11C59.8765 10.8267 60.1165 10.74 60.3431 10.74C60.6498 10.7267 61.0765 10.76 61.6231 10.84L61.2631 12.38C60.8231 12.3 60.5165 12.2667 60.3431 12.28C60.1165 12.28 59.8765 12.3867 59.6231 12.6C59.3698 12.8133 59.1498 13.04 58.9631 13.28C58.7231 13.5733 58.4898 13.9067 58.2631 14.28V21H56.6631V12.56ZM74.4517 9.24C74.1317 9.16 73.7984 9.08667 73.4517 9.02C73.1451 8.95333 72.7917 8.9 72.3917 8.86C72.0051 8.80667 71.5984 8.78 71.1717 8.78C70.1851 8.78 69.4784 8.93333 69.0517 9.24C68.6251 9.53333 68.4117 9.99333 68.4117 10.62C68.4251 11.1133 68.6051 11.5333 68.9517 11.88C69.2984 12.2133 69.7317 12.5267 70.2517 12.82C70.7717 13.1 71.3384 13.38 71.9517 13.66C72.5784 13.9267 73.1517 14.24 73.6717 14.6C74.1917 14.9467 74.6251 15.36 74.9717 15.84C75.3317 16.3067 75.5117 16.88 75.5117 17.56C75.5117 18.3467 75.3384 18.98 74.9917 19.46C74.6584 19.94 74.2317 20.3133 73.7117 20.58C73.1917 20.8467 72.6184 21.0267 71.9917 21.12C71.3784 21.2133 70.7917 21.26 70.2317 21.26C69.6984 21.26 69.2117 21.2267 68.7717 21.16C68.3317 21.0933 67.9517 21.02 67.6317 20.94C67.2584 20.8467 66.9184 20.74 66.6117 20.62L67.0117 19C67.3184 19.1333 67.6451 19.2467 67.9917 19.34C68.2984 19.42 68.6384 19.4933 69.0117 19.56C69.3984 19.6267 69.8051 19.66 70.2317 19.66C70.7517 19.66 71.2251 19.6267 71.6517 19.56C72.0917 19.4933 72.4717 19.3867 72.7917 19.24C73.1117 19.0933 73.3584 18.9 73.5317 18.66C73.7184 18.42 73.8117 18.1267 73.8117 17.78C73.7984 17.26 73.6251 16.84 73.2917 16.52C72.9717 16.1867 72.5384 15.8733 71.9917 15.58C71.4584 15.2733 70.8784 14.98 70.2517 14.7C69.6384 14.42 69.0717 14.1 68.5517 13.74C68.0317 13.38 67.5917 12.9533 67.2317 12.46C66.8851 11.9667 66.7117 11.3533 66.7117 10.62C66.7117 10.1933 66.7851 9.77333 66.9317 9.36C67.0784 8.94667 67.3251 8.58 67.6717 8.26C68.0317 7.94 68.4917 7.68 69.0517 7.48C69.6251 7.28 70.3317 7.18 71.1717 7.18C71.6517 7.18 72.1051 7.20667 72.5317 7.26C72.9717 7.3 73.3517 7.34667 73.6717 7.4C74.0451 7.46667 74.3984 7.54 74.7317 7.62L74.4517 9.24ZM79.3261 7.94V10.94H82.2261V12.24H79.3261V17.58C79.3261 18.02 79.3328 18.3867 79.3461 18.68C79.3728 18.9733 79.4194 19.2067 79.4861 19.38C79.5528 19.5533 79.6461 19.68 79.7661 19.76C79.8861 19.8267 80.0394 19.86 80.2261 19.86C80.7328 19.8467 81.3194 19.66 81.9861 19.3L82.4661 20.52C82.0261 20.8133 81.6128 21.0067 81.2261 21.1C80.8528 21.2067 80.4794 21.26 80.1061 21.26C79.2261 21.26 78.6061 21.0133 78.2461 20.52C77.8994 20.0133 77.7261 19.18 77.7261 18.02V12.24H75.8861V10.94H77.7261V8.14L79.3261 7.94ZM84.9331 16.02C84.9331 17.3133 85.2198 18.28 85.7931 18.92C86.3798 19.5467 87.1665 19.86 88.1531 19.86C89.1265 19.86 89.8865 19.5467 90.4331 18.92C90.9798 18.2933 91.2531 17.3533 91.2531 16.1C91.2531 14.7667 90.9598 13.7733 90.3731 13.12C89.7998 12.4667 89.0131 12.14 88.0131 12.14C87.0131 12.14 86.2465 12.4667 85.7131 13.12C85.1931 13.76 84.9331 14.7267 84.9331 16.02ZM83.2331 16C83.2331 14.9867 83.3931 14.1467 83.7131 13.48C84.0331 12.8 84.4398 12.26 84.9331 11.86C85.4265 11.4467 85.9531 11.16 86.5131 11C87.0865 10.8267 87.6265 10.74 88.1331 10.74C88.6131 10.74 89.1331 10.82 89.6931 10.98C90.2665 11.1267 90.7931 11.4 91.2731 11.8C91.7531 12.1867 92.1531 12.7133 92.4731 13.38C92.7931 14.0333 92.9531 14.8667 92.9531 15.88C92.9531 16.9333 92.7865 17.8067 92.4531 18.5C92.1331 19.1933 91.7265 19.7467 91.2331 20.16C90.7398 20.56 90.2065 20.84 89.6331 21C89.0598 21.1733 88.5265 21.26 88.0331 21.26C87.5265 21.26 86.9931 21.18 86.4331 21.02C85.8731 20.86 85.3531 20.5867 84.8731 20.2C84.4065 19.8 84.0131 19.26 83.6931 18.58C83.3865 17.9 83.2331 17.04 83.2331 16ZM101.118 12.4C100.891 12.3467 100.578 12.2933 100.178 12.24C99.7775 12.1733 99.3708 12.14 98.9575 12.14C98.3575 12.14 97.8642 12.26 97.4775 12.5C97.1042 12.74 96.8108 13.0533 96.5975 13.44C96.3842 13.8133 96.2375 14.2333 96.1575 14.7C96.0775 15.1533 96.0375 15.6 96.0375 16.04C96.0375 16.72 96.1242 17.3067 96.2975 17.8C96.4708 18.28 96.6975 18.6733 96.9775 18.98C97.2708 19.2867 97.6042 19.5133 97.9775 19.66C98.3508 19.7933 98.7442 19.86 99.1575 19.86C99.4375 19.86 99.7042 19.8467 99.9575 19.82C100.224 19.78 100.464 19.74 100.678 19.7C100.904 19.6467 101.118 19.5867 101.318 19.52L101.638 20.86C101.358 20.94 101.098 21.0067 100.858 21.06C100.618 21.1133 100.331 21.16 99.9975 21.2C99.6775 21.24 99.3308 21.26 98.9575 21.26C98.2242 21.26 97.5708 21.1667 96.9975 20.98C96.4242 20.7933 95.9375 20.4933 95.5375 20.08C95.1508 19.6667 94.8508 19.1267 94.6375 18.46C94.4375 17.7933 94.3375 16.98 94.3375 16.02C94.3375 15.0867 94.4642 14.2867 94.7175 13.62C94.9842 12.94 95.3308 12.3933 95.7575 11.98C96.1842 11.5533 96.6708 11.24 97.2175 11.04C97.7775 10.84 98.3575 10.74 98.9575 10.74C99.2775 10.74 99.5842 10.76 99.8775 10.8C100.184 10.8267 100.451 10.86 100.678 10.9C100.944 10.9533 101.198 11.0067 101.438 11.06L101.118 12.4ZM103.208 6.02L104.808 5.84V14.86L109.268 10.94H111.468L107.108 14.76L111.628 21H109.608L105.928 15.78L104.808 16.76V21H103.208V6.02Z" fill="white"/>
</svg>
