<svg width="20" height="20" viewBox="0 0 20 20" fill="none" xmlns="http://www.w3.org/2000/svg">
<path d="M6.35449 5.33366L8.68783 2.31283C8.85449 2.0906 9.05241 1.92741 9.28158 1.82324C9.51074 1.71908 9.75033 1.66699 10.0003 1.66699C10.2503 1.66699 10.4899 1.71908 10.7191 1.82324C10.9482 1.92741 11.1462 2.0906 11.3128 2.31283L13.6462 5.33366L17.1878 6.52116C17.5489 6.63227 17.8337 6.83713 18.042 7.13574C18.2503 7.43435 18.3545 7.76421 18.3545 8.12533C18.3545 8.29199 18.3302 8.45866 18.2816 8.62533C18.233 8.79199 18.1531 8.95171 18.042 9.10449L15.7503 12.3545L15.8337 15.7712C15.8475 16.2573 15.6878 16.667 15.3545 17.0003C15.0212 17.3337 14.6323 17.5003 14.1878 17.5003C14.16 17.5003 14.0073 17.4795 13.7295 17.4378L10.0003 16.3962L6.27116 17.4378C6.20171 17.4656 6.12533 17.483 6.04199 17.4899C5.95866 17.4969 5.88227 17.5003 5.81283 17.5003C5.36838 17.5003 4.97949 17.3337 4.64616 17.0003C4.31283 16.667 4.1531 16.2573 4.16699 15.7712L4.25033 12.3337L1.97949 9.10449C1.86838 8.95171 1.78852 8.79199 1.73991 8.62533C1.6913 8.45866 1.66699 8.29199 1.66699 8.12533C1.66699 7.7781 1.76769 7.45519 1.96908 7.15658C2.17046 6.85796 2.45171 6.64616 2.81283 6.52116L6.35449 5.33366Z" fill="#D2D5DA"/>
</svg>
